<svg xmlns="http://www.w3.org/2000/svg" viewBox="0 0 360 440" role="img" aria-labelledby="title desc">
  <title id="title">SVGotchi deterministic transition previews</title>
  <desc id="desc">Five multi-frame monochrome emotion transition previews.</desc>
  <style>
    .bg { fill: #000; }
    .line { fill: none; stroke: #fff; stroke-width: 1.6; shape-rendering: crispEdges; }
    .thin { fill: none; stroke: #fff; stroke-width: 1; shape-rendering: crispEdges; }
    .fill { fill: #fff; shape-rendering: crispEdges; }
    text { fill: #fff; font-family: monospace; font-size: 4px; }
    .label { font-size: 3.5px; }
    .bubble text { font-size: 3px; }
  </style>
  <rect class="bg" width="360" height="440"/>
  <g data-transition="neutral->shy_love" data-frame-index="0" transform="translate(0 0)">
    <rect x="1" y="1" width="70" height="86" class="thin"/>
    <text x="4" y="8">neutral->shy_love</text>
    <text x="4" y="14" class="label">f0 0%</text>
    <g transform="translate(11 16) rotate(0 39 34) scale(1)">
      <rect x="19" y="16" width="40" height="44" rx="10" class="line"/>
      <rect x="31" y="11" width="8" height="6" class="thin"/>
      <rect x="40" y="9" width="8" height="6" class="thin"/>
      <rect x="37" y="15" width="4" height="6" class="fill"/>
      <rect x="26" y="59" width="8" height="5" class="thin"/>
      <rect x="44" y="59" width="8" height="5" class="thin"/>
      
      <rect x="29" y="34" width="5" height="5" class="fill"/><rect x="45" y="34" width="5" height="5" class="fill"/>
      <rect x="36" y="48" width="8" height="2" class="fill"/>
      <rect x="25" y="44" width="6" height="3" class="fill" opacity="0"/>
      <rect x="47" y="44" width="6" height="3" class="fill" opacity="0"/>
      
      <g class="bubble">
      <rect x="12" y="3" width="56" height="12" rx="2" class="thin"/>
      <path d="M34 15l4 4l2-4" class="fill"/>
      <text x="16" y="11">eep...</text>
    </g>
    </g>
  </g>
  <g data-transition="neutral->shy_love" data-frame-index="1" transform="translate(72 0)">
    <rect x="1" y="1" width="70" height="86" class="thin"/>
    <text x="4" y="8">neutral->shy_love</text>
    <text x="4" y="14" class="label">f1 20%</text>
    <g transform="translate(10.64 15.419154786963878) rotate(-1.44 39 34) scale(0.99)">
      <rect x="19" y="16" width="40" height="44" rx="10" class="line"/>
      <rect x="31" y="11" width="8" height="6" class="thin"/>
      <rect x="40" y="9" width="8" height="6" class="thin"/>
      <rect x="37" y="15" width="4" height="6" class="fill"/>
      <rect x="26" y="59" width="8" height="5" class="thin"/>
      <rect x="44" y="59" width="8" height="5" class="thin"/>
      
      <rect x="29" y="34" width="5" height="5" class="fill"/><rect x="45" y="34" width="5" height="5" class="fill"/>
      <path d="M35 48h2v2h6v-2h2" class="thin"/>
      <rect x="25" y="44" width="6" height="3" class="fill" opacity="0.36"/>
      <rect x="47" y="44" width="6" height="3" class="fill" opacity="0.36"/>
      
      <g class="bubble">
      <rect x="12" y="3" width="56" height="12" rx="2" class="thin"/>
      <path d="M34 15l4 4l2-4" class="fill"/>
      <text x="16" y="11">eep...</text>
    </g>
    </g>
  </g>
  <g data-transition="neutral->shy_love" data-frame-index="3" transform="translate(144 0)">
    <rect x="1" y="1" width="70" height="86" class="thin"/>
    <text x="4" y="8">neutral->shy_love</text>
    <text x="4" y="14" class="label">f3 60%</text>
    <g transform="translate(10.16 15.949771798166022) rotate(-3.36 39 34) scale(0.98)">
      <rect x="19" y="16" width="40" height="44" rx="10" class="line"/>
      <rect x="31" y="11" width="8" height="6" class="thin"/>
      <rect x="40" y="9" width="8" height="6" class="thin"/>
      <rect x="37" y="15" width="4" height="6" class="fill"/>
      <rect x="26" y="59" width="8" height="5" class="thin"/>
      <rect x="44" y="59" width="8" height="5" class="thin"/>
      <path d="M28 33l7-3M44 30l7 3" class="thin"/>
      <path d="M28 36h7M44 36h7" class="thin"/>
      <path d="M35 48h2v2h6v-2h2" class="thin"/>
      <rect x="25" y="44" width="6" height="3" class="fill" opacity="0.84"/>
      <rect x="47" y="44" width="6" height="3" class="fill" opacity="0.84"/>
      <g opacity="0.76"><path d="M52 20h2v-2h3v2h2v3h-2v2h-3v-2h-2z" class="fill"/></g>
      <g class="bubble">
      <rect x="12" y="3" width="56" height="12" rx="2" class="thin"/>
      <path d="M34 15l4 4l2-4" class="fill"/>
      <text x="16" y="11">eep...</text>
    </g>
    </g>
  </g>
  <g data-transition="neutral->shy_love" data-frame-index="4" transform="translate(216 0)">
    <rect x="1" y="1" width="70" height="86" class="thin"/>
    <text x="4" y="8">neutral->shy_love</text>
    <text x="4" y="14" class="label">f4 80%</text>
    <g transform="translate(10.04 15.719154786963877) rotate(-3.84 39 34) scale(0.98)">
      <rect x="19" y="16" width="40" height="44" rx="10" class="line"/>
      <rect x="31" y="11" width="8" height="6" class="thin"/>
      <rect x="40" y="9" width="8" height="6" class="thin"/>
      <rect x="37" y="15" width="4" height="6" class="fill"/>
      <rect x="26" y="59" width="8" height="5" class="thin"/>
      <rect x="44" y="59" width="8" height="5" class="thin"/>
      <path d="M28 33l7-3M44 30l7 3" class="thin"/>
      <path d="M28 36h7M44 36h7" class="thin"/>
      <path d="M35 48h2v2h6v-2h2" class="thin"/>
      <rect x="25" y="44" width="6" height="3" class="fill" opacity="0.96"/>
      <rect x="47" y="44" width="6" height="3" class="fill" opacity="0.96"/>
      <g opacity="0.86"><path d="M52 20h2v-2h3v2h2v3h-2v2h-3v-2h-2z" class="fill"/></g>
      <g class="bubble">
      <rect x="12" y="3" width="56" height="12" rx="2" class="thin"/>
      <path d="M34 15l4 4l2-4" class="fill"/>
      <text x="16" y="11">eep...</text>
    </g>
    </g>
  </g>
  <g data-transition="neutral->shy_love" data-frame-index="5" transform="translate(288 0)">
    <rect x="1" y="1" width="70" height="86" class="thin"/>
    <text x="4" y="8">neutral->shy_love</text>
    <text x="4" y="14" class="label">f5 100%</text>
    <g transform="translate(10 16.5) rotate(-4 39 34) scale(0.98)">
      <rect x="19" y="16" width="40" height="44" rx="10" class="line"/>
      <rect x="31" y="11" width="8" height="6" class="thin"/>
      <rect x="40" y="9" width="8" height="6" class="thin"/>
      <rect x="37" y="15" width="4" height="6" class="fill"/>
      <rect x="26" y="59" width="8" height="5" class="thin"/>
      <rect x="44" y="59" width="8" height="5" class="thin"/>
      <path d="M28 33l7-3M44 30l7 3" class="thin"/>
      <path d="M28 36h7M44 36h7" class="thin"/>
      <path d="M35 48h2v2h6v-2h2" class="thin"/>
      <rect x="25" y="44" width="6" height="3" class="fill" opacity="1"/>
      <rect x="47" y="44" width="6" height="3" class="fill" opacity="1"/>
      <g opacity="0.9"><path d="M52 20h2v-2h3v2h2v3h-2v2h-3v-2h-2z" class="fill"/></g>
      <g class="bubble">
      <rect x="12" y="3" width="56" height="12" rx="2" class="thin"/>
      <path d="M34 15l4 4l2-4" class="fill"/>
      <text x="16" y="11">eep...</text>
    </g>
    </g>
  </g>
  <g data-transition="neutral->hungry" data-frame-index="0" transform="translate(0 88)">
    <rect x="1" y="1" width="70" height="86" class="thin"/>
    <text x="4" y="8">neutral->hungry</text>
    <text x="4" y="14" class="label">f0 0%</text>
    <g transform="translate(11 16) rotate(0 39 34) scale(1)">
      <rect x="19" y="16" width="40" height="44" rx="10" class="line"/>
      <rect x="31" y="11" width="8" height="6" class="thin"/>
      <rect x="40" y="9" width="8" height="6" class="thin"/>
      <rect x="37" y="15" width="4" height="6" class="fill"/>
      <rect x="26" y="59" width="8" height="5" class="thin"/>
      <rect x="44" y="59" width="8" height="5" class="thin"/>
      
      <rect x="29" y="34" width="5" height="5" class="fill"/><rect x="45" y="34" width="5" height="5" class="fill"/>
      <rect x="36" y="48" width="8" height="2" class="fill"/>
      <rect x="25" y="44" width="6" height="3" class="fill" opacity="0"/>
      <rect x="47" y="44" width="6" height="3" class="fill" opacity="0"/>
      
      <g class="bubble">
      <rect x="12" y="3" width="56" height="12" rx="2" class="thin"/>
      <path d="M34 15l4 4l2-4" class="fill"/>
      <text x="16" y="11">snack?</text>
    </g>
    </g>
  </g>
  <g data-transition="neutral->hungry" data-frame-index="1" transform="translate(72 88)">
    <rect x="1" y="1" width="70" height="86" class="thin"/>
    <text x="4" y="8">neutral->hungry</text>
    <text x="4" y="14" class="label">f1 20%</text>
    <g transform="translate(11 16.02) rotate(2.85 39 34) scale(1)">
      <rect x="19" y="16" width="40" height="44" rx="10" class="line"/>
      <rect x="31" y="11" width="8" height="6" class="thin"/>
      <rect x="40" y="9" width="8" height="6" class="thin"/>
      <rect x="37" y="15" width="4" height="6" class="fill"/>
      <rect x="26" y="59" width="8" height="5" class="thin"/>
      <rect x="44" y="59" width="8" height="5" class="thin"/>
      
      <rect x="29" y="34" width="5" height="5" class="fill"/><rect x="45" y="34" width="5" height="5" class="fill"/>
      <rect x="36" y="48" width="8" height="2" class="fill"/>
      <rect x="25" y="44" width="6" height="3" class="fill" opacity="0"/>
      <rect x="47" y="44" width="6" height="3" class="fill" opacity="0"/>
      
      <g class="bubble">
      <rect x="12" y="3" width="56" height="12" rx="2" class="thin"/>
      <path d="M34 15l4 4l2-4" class="fill"/>
      <text x="16" y="11">snack?</text>
    </g>
    </g>
  </g>
  <g data-transition="neutral->hungry" data-frame-index="3" transform="translate(144 88)">
    <rect x="1" y="1" width="70" height="86" class="thin"/>
    <text x="4" y="8">neutral->hungry</text>
    <text x="4" y="14" class="label">f3 60%</text>
    <g transform="translate(11 16.18) rotate(-1.76 39 34) scale(0.99)">
      <rect x="19" y="16" width="40" height="44" rx="10" class="line"/>
      <rect x="31" y="11" width="8" height="6" class="thin"/>
      <rect x="40" y="9" width="8" height="6" class="thin"/>
      <rect x="37" y="15" width="4" height="6" class="fill"/>
      <rect x="26" y="59" width="8" height="5" class="thin"/>
      <rect x="44" y="59" width="8" height="5" class="thin"/>
      
      <rect x="29" y="34" width="5" height="5" class="fill"/><rect x="45" y="34" width="5" height="5" class="fill"/>
      <rect x="38" y="47" width="4" height="4" class="thin"/>
      <rect x="25" y="44" width="6" height="3" class="fill" opacity="0"/>
      <rect x="47" y="44" width="6" height="3" class="fill" opacity="0"/>
      
      <g class="bubble">
      <rect x="12" y="3" width="56" height="12" rx="2" class="thin"/>
      <path d="M34 15l4 4l2-4" class="fill"/>
      <text x="16" y="11">snack?</text>
    </g>
    </g>
  </g>
  <g data-transition="neutral->hungry" data-frame-index="4" transform="translate(216 88)">
    <rect x="1" y="1" width="70" height="86" class="thin"/>
    <text x="4" y="8">neutral->hungry</text>
    <text x="4" y="14" class="label">f4 80%</text>
    <g transform="translate(11 16.32) rotate(-2.85 39 34) scale(0.99)">
      <rect x="19" y="16" width="40" height="44" rx="10" class="line"/>
      <rect x="31" y="11" width="8" height="6" class="thin"/>
      <rect x="40" y="9" width="8" height="6" class="thin"/>
      <rect x="37" y="15" width="4" height="6" class="fill"/>
      <rect x="26" y="59" width="8" height="5" class="thin"/>
      <rect x="44" y="59" width="8" height="5" class="thin"/>
      <path d="M28 33l7-3M44 30l7 3" class="thin"/>
      <rect x="29" y="34" width="5" height="5" class="fill"/><rect x="45" y="34" width="5" height="5" class="fill"/>
      <rect x="38" y="47" width="4" height="4" class="thin"/>
      <rect x="25" y="44" width="6" height="3" class="fill" opacity="0"/>
      <rect x="47" y="44" width="6" height="3" class="fill" opacity="0"/>
      
      <g class="bubble">
      <rect x="12" y="3" width="56" height="12" rx="2" class="thin"/>
      <path d="M34 15l4 4l2-4" class="fill"/>
      <text x="16" y="11">snack?</text>
    </g>
    </g>
  </g>
  <g data-transition="neutral->hungry" data-frame-index="5" transform="translate(288 88)">
    <rect x="1" y="1" width="70" height="86" class="thin"/>
    <text x="4" y="8">neutral->hungry</text>
    <text x="4" y="14" class="label">f5 100%</text>
    <g transform="translate(11 16.5) rotate(0 39 34) scale(0.98)">
      <rect x="19" y="16" width="40" height="44" rx="10" class="line"/>
      <rect x="31" y="11" width="8" height="6" class="thin"/>
      <rect x="40" y="9" width="8" height="6" class="thin"/>
      <rect x="37" y="15" width="4" height="6" class="fill"/>
      <rect x="26" y="59" width="8" height="5" class="thin"/>
      <rect x="44" y="59" width="8" height="5" class="thin"/>
      <path d="M28 33l7-3M44 30l7 3" class="thin"/>
      <rect x="29" y="34" width="5" height="5" class="fill"/><rect x="45" y="34" width="5" height="5" class="fill"/>
      <rect x="38" y="47" width="4" height="4" class="thin"/>
      <rect x="25" y="44" width="6" height="3" class="fill" opacity="0"/>
      <rect x="47" y="44" width="6" height="3" class="fill" opacity="0"/>
      <g opacity="0.75"><text x="55" y="23">?</text></g>
      <g class="bubble">
      <rect x="12" y="3" width="56" height="12" rx="2" class="thin"/>
      <path d="M34 15l4 4l2-4" class="fill"/>
      <text x="16" y="11">snack?</text>
    </g>
    </g>
  </g>
  <g data-transition="neutral->sleepy" data-frame-index="0" transform="translate(0 176)">
    <rect x="1" y="1" width="70" height="86" class="thin"/>
    <text x="4" y="8">neutral->sleepy</text>
    <text x="4" y="14" class="label">f0 0%</text>
    <g transform="translate(11 16) rotate(0 39 34) scale(1)">
      <rect x="19" y="16" width="40" height="44" rx="10" class="line"/>
      <rect x="31" y="11" width="8" height="6" class="thin"/>
      <rect x="40" y="9" width="8" height="6" class="thin"/>
      <rect x="37" y="15" width="4" height="6" class="fill"/>
      <rect x="26" y="59" width="8" height="5" class="thin"/>
      <rect x="44" y="59" width="8" height="5" class="thin"/>
      
      <rect x="29" y="34" width="5" height="5" class="fill"/><rect x="45" y="34" width="5" height="5" class="fill"/>
      <rect x="36" y="48" width="8" height="2" class="fill"/>
      <rect x="25" y="44" width="6" height="3" class="fill" opacity="0"/>
      <rect x="47" y="44" width="6" height="3" class="fill" opacity="0"/>
      
      <g class="bubble">
      <rect x="12" y="3" width="56" height="12" rx="2" class="thin"/>
      <path d="M34 15l4 4l2-4" class="fill"/>
      <text x="16" y="11">zzz...</text>
    </g>
    </g>
  </g>
  <g data-transition="neutral->sleepy" data-frame-index="1" transform="translate(72 176)">
    <rect x="1" y="1" width="70" height="86" class="thin"/>
    <text x="4" y="8">neutral->sleepy</text>
    <text x="4" y="14" class="label">f1 20%</text>
    <g transform="translate(11 16.3) rotate(0 39 34) scale(0.99)">
      <rect x="19" y="16" width="40" height="44" rx="10" class="line"/>
      <rect x="31" y="11" width="8" height="6" class="thin"/>
      <rect x="40" y="9" width="8" height="6" class="thin"/>
      <rect x="37" y="15" width="4" height="6" class="fill"/>
      <rect x="26" y="59" width="8" height="5" class="thin"/>
      <rect x="44" y="59" width="8" height="5" class="thin"/>
      
      <rect x="29" y="34" width="5" height="5" class="fill"/><rect x="45" y="34" width="5" height="5" class="fill"/>
      <rect x="36" y="48" width="8" height="2" class="fill"/>
      <rect x="25" y="44" width="6" height="3" class="fill" opacity="0"/>
      <rect x="47" y="44" width="6" height="3" class="fill" opacity="0"/>
      
      <g class="bubble">
      <rect x="12" y="3" width="56" height="12" rx="2" class="thin"/>
      <path d="M34 15l4 4l2-4" class="fill"/>
      <text x="16" y="11">zzz...</text>
    </g>
    </g>
  </g>
  <g data-transition="neutral->sleepy" data-frame-index="3" transform="translate(144 176)">
    <rect x="1" y="1" width="70" height="86" class="thin"/>
    <text x="4" y="8">neutral->sleepy</text>
    <text x="4" y="14" class="label">f3 60%</text>
    <g transform="translate(11 16.9) rotate(0 39 34) scale(0.98)">
      <rect x="19" y="16" width="40" height="44" rx="10" class="line"/>
      <rect x="31" y="11" width="8" height="6" class="thin"/>
      <rect x="40" y="9" width="8" height="6" class="thin"/>
      <rect x="37" y="15" width="4" height="6" class="fill"/>
      <rect x="26" y="59" width="8" height="5" class="thin"/>
      <rect x="44" y="59" width="8" height="5" class="thin"/>
      
      <rect x="29" y="36" width="6" height="2" class="fill"/><rect x="45" y="36" width="6" height="2" class="fill"/>
      <rect x="36" y="48" width="8" height="2" class="fill"/>
      <rect x="25" y="44" width="6" height="3" class="fill" opacity="0"/>
      <rect x="47" y="44" width="6" height="3" class="fill" opacity="0"/>
      
      <g class="bubble">
      <rect x="12" y="3" width="56" height="12" rx="2" class="thin"/>
      <path d="M34 15l4 4l2-4" class="fill"/>
      <text x="16" y="11">zzz...</text>
    </g>
    </g>
  </g>
  <g data-transition="neutral->sleepy" data-frame-index="4" transform="translate(216 176)">
    <rect x="1" y="1" width="70" height="86" class="thin"/>
    <text x="4" y="8">neutral->sleepy</text>
    <text x="4" y="14" class="label">f4 80%</text>
    <g transform="translate(11 17.2) rotate(0 39 34) scale(0.98)">
      <rect x="19" y="16" width="40" height="44" rx="10" class="line"/>
      <rect x="31" y="11" width="8" height="6" class="thin"/>
      <rect x="40" y="9" width="8" height="6" class="thin"/>
      <rect x="37" y="15" width="4" height="6" class="fill"/>
      <rect x="26" y="59" width="8" height="5" class="thin"/>
      <rect x="44" y="59" width="8" height="5" class="thin"/>
      
      <rect x="29" y="36" width="6" height="2" class="fill"/><rect x="45" y="36" width="6" height="2" class="fill"/>
      <rect x="36" y="48" width="8" height="2" class="fill"/>
      <rect x="25" y="44" width="6" height="3" class="fill" opacity="0"/>
      <rect x="47" y="44" width="6" height="3" class="fill" opacity="0"/>
      <g opacity="0.8"><text x="54" y="19">Z</text></g>
      <g class="bubble">
      <rect x="12" y="3" width="56" height="12" rx="2" class="thin"/>
      <path d="M34 15l4 4l2-4" class="fill"/>
      <text x="16" y="11">zzz...</text>
    </g>
    </g>
  </g>
  <g data-transition="neutral->sleepy" data-frame-index="5" transform="translate(288 176)">
    <rect x="1" y="1" width="70" height="86" class="thin"/>
    <text x="4" y="8">neutral->sleepy</text>
    <text x="4" y="14" class="label">f5 100%</text>
    <g transform="translate(11 17.5) rotate(0 39 34) scale(0.97)">
      <rect x="19" y="16" width="40" height="44" rx="10" class="line"/>
      <rect x="31" y="11" width="8" height="6" class="thin"/>
      <rect x="40" y="9" width="8" height="6" class="thin"/>
      <rect x="37" y="15" width="4" height="6" class="fill"/>
      <rect x="26" y="59" width="8" height="5" class="thin"/>
      <rect x="44" y="59" width="8" height="5" class="thin"/>
      
      <rect x="29" y="36" width="6" height="2" class="fill"/><rect x="45" y="36" width="6" height="2" class="fill"/>
      <rect x="36" y="48" width="8" height="2" class="fill"/>
      <rect x="25" y="44" width="6" height="3" class="fill" opacity="0"/>
      <rect x="47" y="44" width="6" height="3" class="fill" opacity="0"/>
      <g opacity="1"><text x="54" y="19">Z</text></g>
      <g class="bubble">
      <rect x="12" y="3" width="56" height="12" rx="2" class="thin"/>
      <path d="M34 15l4 4l2-4" class="fill"/>
      <text x="16" y="11">zzz...</text>
    </g>
    </g>
  </g>
  <g data-transition="neutral->hurt" data-frame-index="0" transform="translate(0 264)">
    <rect x="1" y="1" width="70" height="86" class="thin"/>
    <text x="4" y="8">neutral->hurt</text>
    <text x="4" y="14" class="label">f0 0%</text>
    <g transform="translate(12.2 16) rotate(0 39 34) scale(1)">
      <rect x="19" y="16" width="40" height="44" rx="10" class="line"/>
      <rect x="31" y="11" width="8" height="6" class="thin"/>
      <rect x="40" y="9" width="8" height="6" class="thin"/>
      <rect x="37" y="15" width="4" height="6" class="fill"/>
      <rect x="26" y="59" width="8" height="5" class="thin"/>
      <rect x="44" y="59" width="8" height="5" class="thin"/>
      
      <rect x="29" y="34" width="5" height="5" class="fill"/><rect x="45" y="34" width="5" height="5" class="fill"/>
      <rect x="36" y="48" width="8" height="2" class="fill"/>
      <rect x="25" y="44" width="6" height="3" class="fill" opacity="0"/>
      <rect x="47" y="44" width="6" height="3" class="fill" opacity="0"/>
      
      <g class="bubble">
      <rect x="12" y="3" width="56" height="12" rx="2" class="thin"/>
      <path d="M34 15l4 4l2-4" class="fill"/>
      <text x="16" y="11">ow...</text>
    </g>
    </g>
  </g>
  <g data-transition="neutral->hurt" data-frame-index="1" transform="translate(72 264)">
    <rect x="1" y="1" width="70" height="86" class="thin"/>
    <text x="4" y="8">neutral->hurt</text>
    <text x="4" y="14" class="label">f1 20%</text>
    <g transform="translate(12.56 16.36) rotate(1.08 39 34) scale(0.99)">
      <rect x="19" y="16" width="40" height="44" rx="10" class="line"/>
      <rect x="31" y="11" width="8" height="6" class="thin"/>
      <rect x="40" y="9" width="8" height="6" class="thin"/>
      <rect x="37" y="15" width="4" height="6" class="fill"/>
      <rect x="26" y="59" width="8" height="5" class="thin"/>
      <rect x="44" y="59" width="8" height="5" class="thin"/>
      
      <rect x="29" y="34" width="5" height="5" class="fill"/><rect x="45" y="34" width="5" height="5" class="fill"/>
      <path d="M34 49l3-2l3 2l3-2l3 2" class="thin"/>
      <rect x="25" y="44" width="6" height="3" class="fill" opacity="0"/>
      <rect x="47" y="44" width="6" height="3" class="fill" opacity="0"/>
      
      <g class="bubble">
      <rect x="12" y="3" width="56" height="12" rx="2" class="thin"/>
      <path d="M34 15l4 4l2-4" class="fill"/>
      <text x="16" y="11">ow...</text>
    </g>
    </g>
  </g>
  <g data-transition="neutral->hurt" data-frame-index="3" transform="translate(144 264)">
    <rect x="1" y="1" width="70" height="86" class="thin"/>
    <text x="4" y="8">neutral->hurt</text>
    <text x="4" y="14" class="label">f3 60%</text>
    <g transform="translate(10.64 16.84) rotate(2.52 39 34) scale(0.97)">
      <rect x="19" y="16" width="40" height="44" rx="10" class="line"/>
      <rect x="31" y="11" width="8" height="6" class="thin"/>
      <rect x="40" y="9" width="8" height="6" class="thin"/>
      <rect x="37" y="15" width="4" height="6" class="fill"/>
      <rect x="26" y="59" width="8" height="5" class="thin"/>
      <rect x="44" y="59" width="8" height="5" class="thin"/>
      <path d="M28 33l7-3M44 30l7 3" class="thin"/>
      <path d="M28 36l7 3M44 39l7-3" class="thin"/>
      <path d="M34 49l3-2l3 2l3-2l3 2" class="thin"/>
      <rect x="25" y="44" width="6" height="3" class="fill" opacity="0"/>
      <rect x="47" y="44" width="6" height="3" class="fill" opacity="0"/>
      <g opacity="0.63"><rect x="28" y="40" width="2" height="5" class="fill"/><rect x="50" y="40" width="2" height="5" class="fill"/></g>
      <g class="bubble">
      <rect x="12" y="3" width="56" height="12" rx="2" class="thin"/>
      <path d="M34 15l4 4l2-4" class="fill"/>
      <text x="16" y="11">ow...</text>
    </g>
    </g>
  </g>
  <g data-transition="neutral->hurt" data-frame-index="4" transform="translate(216 264)">
    <rect x="1" y="1" width="70" height="86" class="thin"/>
    <text x="4" y="8">neutral->hurt</text>
    <text x="4" y="14" class="label">f4 80%</text>
    <g transform="translate(10.76 16.96) rotate(2.88 39 34) scale(0.97)">
      <rect x="19" y="16" width="40" height="44" rx="10" class="line"/>
      <rect x="31" y="11" width="8" height="6" class="thin"/>
      <rect x="40" y="9" width="8" height="6" class="thin"/>
      <rect x="37" y="15" width="4" height="6" class="fill"/>
      <rect x="26" y="59" width="8" height="5" class="thin"/>
      <rect x="44" y="59" width="8" height="5" class="thin"/>
      <path d="M28 33l7-3M44 30l7 3" class="thin"/>
      <path d="M28 36l7 3M44 39l7-3" class="thin"/>
      <path d="M34 49l3-2l3 2l3-2l3 2" class="thin"/>
      <rect x="25" y="44" width="6" height="3" class="fill" opacity="0"/>
      <rect x="47" y="44" width="6" height="3" class="fill" opacity="0"/>
      <g opacity="0.72"><rect x="28" y="40" width="2" height="5" class="fill"/><rect x="50" y="40" width="2" height="5" class="fill"/></g>
      <g class="bubble">
      <rect x="12" y="3" width="56" height="12" rx="2" class="thin"/>
      <path d="M34 15l4 4l2-4" class="fill"/>
      <text x="16" y="11">ow...</text>
    </g>
    </g>
  </g>
  <g data-transition="neutral->hurt" data-frame-index="5" transform="translate(288 264)">
    <rect x="1" y="1" width="70" height="86" class="thin"/>
    <text x="4" y="8">neutral->hurt</text>
    <text x="4" y="14" class="label">f5 100%</text>
    <g transform="translate(10.8 17) rotate(3 39 34) scale(0.97)">
      <rect x="19" y="16" width="40" height="44" rx="10" class="line"/>
      <rect x="31" y="11" width="8" height="6" class="thin"/>
      <rect x="40" y="9" width="8" height="6" class="thin"/>
      <rect x="37" y="15" width="4" height="6" class="fill"/>
      <rect x="26" y="59" width="8" height="5" class="thin"/>
      <rect x="44" y="59" width="8" height="5" class="thin"/>
      <path d="M28 33l7-3M44 30l7 3" class="thin"/>
      <path d="M28 36l7 3M44 39l7-3" class="thin"/>
      <path d="M34 49l3-2l3 2l3-2l3 2" class="thin"/>
      <rect x="25" y="44" width="6" height="3" class="fill" opacity="0"/>
      <rect x="47" y="44" width="6" height="3" class="fill" opacity="0"/>
      <g opacity="0.75"><rect x="28" y="40" width="2" height="5" class="fill"/><rect x="50" y="40" width="2" height="5" class="fill"/></g>
      <g class="bubble">
      <rect x="12" y="3" width="56" height="12" rx="2" class="thin"/>
      <path d="M34 15l4 4l2-4" class="fill"/>
      <text x="16" y="11">ow...</text>
    </g>
    </g>
  </g>
  <g data-transition="neutral->curious" data-frame-index="0" transform="translate(0 352)">
    <rect x="1" y="1" width="70" height="86" class="thin"/>
    <text x="4" y="8">neutral->curious</text>
    <text x="4" y="14" class="label">f0 0%</text>
    <g transform="translate(11 16) rotate(0 39 34) scale(1)">
      <rect x="19" y="16" width="40" height="44" rx="10" class="line"/>
      <rect x="31" y="11" width="8" height="6" class="thin"/>
      <rect x="40" y="9" width="8" height="6" class="thin"/>
      <rect x="37" y="15" width="4" height="6" class="fill"/>
      <rect x="26" y="59" width="8" height="5" class="thin"/>
      <rect x="44" y="59" width="8" height="5" class="thin"/>
      
      <rect x="29" y="34" width="5" height="5" class="fill"/><rect x="45" y="34" width="5" height="5" class="fill"/>
      <rect x="36" y="48" width="8" height="2" class="fill"/>
      <rect x="25" y="44" width="6" height="3" class="fill" opacity="0"/>
      <rect x="47" y="44" width="6" height="3" class="fill" opacity="0"/>
      
      <g class="bubble">
      <rect x="12" y="3" width="56" height="12" rx="2" class="thin"/>
      <path d="M34 15l4 4l2-4" class="fill"/>
      <text x="16" y="11">hmm?</text>
    </g>
    </g>
  </g>
  <g data-transition="neutral->curious" data-frame-index="1" transform="translate(72 352)">
    <rect x="1" y="1" width="70" height="86" class="thin"/>
    <text x="4" y="8">neutral->curious</text>
    <text x="4" y="14" class="label">f1 20%</text>
    <g transform="translate(11 15.720732884862452) rotate(0.62 39 34) scale(1.01)">
      <rect x="19" y="16" width="40" height="44" rx="10" class="line"/>
      <rect x="31" y="11" width="8" height="6" class="thin"/>
      <rect x="40" y="9" width="8" height="6" class="thin"/>
      <rect x="37" y="15" width="4" height="6" class="fill"/>
      <rect x="26" y="59" width="8" height="5" class="thin"/>
      <rect x="44" y="59" width="8" height="5" class="thin"/>
      <path d="M28 28h7M44 28h7" class="thin"/>
      <rect x="28" y="32" width="7" height="7" class="thin"/><rect x="44" y="32" width="7" height="7" class="thin"/>
      <path d="M35 48h2v2h6v-2h2" class="thin"/>
      <rect x="25" y="44" width="6" height="3" class="fill" opacity="0"/>
      <rect x="47" y="44" width="6" height="3" class="fill" opacity="0"/>
      
      <g class="bubble">
      <rect x="12" y="3" width="56" height="12" rx="2" class="thin"/>
      <path d="M34 15l4 4l2-4" class="fill"/>
      <text x="16" y="11">hmm?</text>
    </g>
    </g>
  </g>
  <g data-transition="neutral->curious" data-frame-index="3" transform="translate(144 352)">
    <rect x="1" y="1" width="70" height="86" class="thin"/>
    <text x="4" y="8">neutral->curious</text>
    <text x="4" y="14" class="label">f3 60%</text>
    <g transform="translate(11 15.5) rotate(-5.76 39 34) scale(1.01)">
      <rect x="19" y="16" width="40" height="44" rx="10" class="line"/>
      <rect x="31" y="11" width="8" height="6" class="thin"/>
      <rect x="40" y="9" width="8" height="6" class="thin"/>
      <rect x="37" y="15" width="4" height="6" class="fill"/>
      <rect x="26" y="59" width="8" height="5" class="thin"/>
      <rect x="44" y="59" width="8" height="5" class="thin"/>
      <path d="M28 28h7M44 28h7" class="thin"/>
      <rect x="28" y="32" width="7" height="7" class="thin"/><rect x="44" y="32" width="7" height="7" class="thin"/>
      <path d="M35 48h2v2h6v-2h2" class="thin"/>
      <rect x="25" y="44" width="6" height="3" class="fill" opacity="0"/>
      <rect x="47" y="44" width="6" height="3" class="fill" opacity="0"/>
      <g opacity="0.75"><text x="55" y="23">?</text></g>
      <g class="bubble">
      <rect x="12" y="3" width="56" height="12" rx="2" class="thin"/>
      <path d="M34 15l4 4l2-4" class="fill"/>
      <text x="16" y="11">hmm?</text>
    </g>
    </g>
  </g>
  <g data-transition="neutral->curious" data-frame-index="4" transform="translate(216 352)">
    <rect x="1" y="1" width="70" height="86" class="thin"/>
    <text x="4" y="8">neutral->curious</text>
    <text x="4" y="14" class="label">f4 80%</text>
    <g transform="translate(11 15.5) rotate(-6.85 39 34) scale(1.01)">
      <rect x="19" y="16" width="40" height="44" rx="10" class="line"/>
      <rect x="31" y="11" width="8" height="6" class="thin"/>
      <rect x="40" y="9" width="8" height="6" class="thin"/>
      <rect x="37" y="15" width="4" height="6" class="fill"/>
      <rect x="26" y="59" width="8" height="5" class="thin"/>
      <rect x="44" y="59" width="8" height="5" class="thin"/>
      <path d="M28 28h7M44 28h7" class="thin"/>
      <rect x="28" y="32" width="7" height="7" class="thin"/><rect x="44" y="32" width="7" height="7" class="thin"/>
      <path d="M35 48h2v2h6v-2h2" class="thin"/>
      <rect x="25" y="44" width="6" height="3" class="fill" opacity="0"/>
      <rect x="47" y="44" width="6" height="3" class="fill" opacity="0"/>
      <g opacity="0.75"><text x="55" y="23">?</text></g>
      <g class="bubble">
      <rect x="12" y="3" width="56" height="12" rx="2" class="thin"/>
      <path d="M34 15l4 4l2-4" class="fill"/>
      <text x="16" y="11">hmm?</text>
    </g>
    </g>
  </g>
  <g data-transition="neutral->curious" data-frame-index="5" transform="translate(288 352)">
    <rect x="1" y="1" width="70" height="86" class="thin"/>
    <text x="4" y="8">neutral->curious</text>
    <text x="4" y="14" class="label">f5 100%</text>
    <g transform="translate(11 15.5) rotate(-4 39 34) scale(1.01)">
      <rect x="19" y="16" width="40" height="44" rx="10" class="line"/>
      <rect x="31" y="11" width="8" height="6" class="thin"/>
      <rect x="40" y="9" width="8" height="6" class="thin"/>
      <rect x="37" y="15" width="4" height="6" class="fill"/>
      <rect x="26" y="59" width="8" height="5" class="thin"/>
      <rect x="44" y="59" width="8" height="5" class="thin"/>
      <path d="M28 28h7M44 28h7" class="thin"/>
      <rect x="28" y="32" width="7" height="7" class="thin"/><rect x="44" y="32" width="7" height="7" class="thin"/>
      <path d="M35 48h2v2h6v-2h2" class="thin"/>
      <rect x="25" y="44" width="6" height="3" class="fill" opacity="0"/>
      <rect x="47" y="44" width="6" height="3" class="fill" opacity="0"/>
      <g opacity="0.75"><text x="55" y="23">?</text></g>
      <g class="bubble">
      <rect x="12" y="3" width="56" height="12" rx="2" class="thin"/>
      <path d="M34 15l4 4l2-4" class="fill"/>
      <text x="16" y="11">hmm?</text>
    </g>
    </g>
  </g>
</svg>
