<svg xmlns="http://www.w3.org/2000/svg" viewBox="0 0 360 440" role="img" aria-labelledby="title desc">
  <title id="title">SVGotchi deterministic transition previews</title>
  <desc id="desc">Five multi-frame emotion transition previews using the uploaded character asset from assets/1.png.</desc>
  <style>
    .bg { fill: #140f1f; }
    .frame { fill: none; stroke: #5f4a7d; stroke-width: 1; }
    .character-image { image-rendering: auto; }
    .effect-fill { fill: #ff7dac; }
    .effect-tear { fill: #7ed8ff; }
    .effect-line { stroke: #ffe889; stroke-width: 1.2; stroke-linecap: round; fill: none; }
    .bubble { fill: #211832; stroke: #cbb5ea; stroke-width: 1; }
    .bubble-tail { fill: #cdb9ff; }
    text { fill: #f7eaff; font-family: monospace; font-size: 4px; }
    .label { font-size: 3.5px; }
    .muted { opacity: 0.65; }
    .bubble-group text { font-size: 3px; }
  </style>
  <rect class="bg" width="360" height="440"/>
  <g data-transition="neutral->shy_love" data-frame-index="0" transform="translate(0 0)">
    <rect x="1" y="1" width="70" height="86" class="frame"/>
    <text x="4" y="8">neutral->shy_love</text>
    <text x="4" y="14" class="label">f0 0%</text>
    <g transform="translate(5 18) rotate(0 50 43) scale(0.62)">
      <image href="/assets/1.png" x="0" y="0" width="100" height="100" preserveAspectRatio="xMidYMid meet" class="character-image"/>
      <g class="bubble-group">
        <rect x="20" y="4" width="60" height="13" rx="4" class="bubble"/>
        <path d="M45 17l5 4l3-4" class="bubble-tail"/>
        <text x="24" y="13">eep...</text>
      </g>
    </g>
  </g>
  <g data-transition="neutral->shy_love" data-frame-index="1" transform="translate(72 0)">
    <rect x="1" y="1" width="70" height="86" class="frame"/>
    <text x="4" y="8">neutral->shy_love</text>
    <text x="4" y="14" class="label">f1 20%</text>
    <g transform="translate(4.64 17.42) rotate(-1.44 50 43) scale(0.62)">
      <image href="/assets/1.png" x="0" y="0" width="100" height="100" preserveAspectRatio="xMidYMid meet" class="character-image"/>
      <g class="bubble-group">
        <rect x="20" y="4" width="60" height="13" rx="4" class="bubble"/>
        <path d="M45 17l5 4l3-4" class="bubble-tail"/>
        <text x="24" y="13">eep...</text>
      </g>
    </g>
  </g>
  <g data-transition="neutral->shy_love" data-frame-index="3" transform="translate(144 0)">
    <rect x="1" y="1" width="70" height="86" class="frame"/>
    <text x="4" y="8">neutral->shy_love</text>
    <text x="4" y="14" class="label">f3 60%</text>
    <g transform="translate(4.16 17.95) rotate(-3.36 50 43) scale(0.61)">
      <image href="/assets/1.png" x="0" y="0" width="100" height="100" preserveAspectRatio="xMidYMid meet" class="character-image"/>
      <g opacity="0.76"><path d="M67 22c-2-4-8-2-6 3c1 3 6 6 6 6s5-3 6-6c2-5-4-7-6-3z" class="effect-fill"/></g>
      <g class="bubble-group">
        <rect x="20" y="4" width="60" height="13" rx="4" class="bubble"/>
        <path d="M45 17l5 4l3-4" class="bubble-tail"/>
        <text x="24" y="13">eep...</text>
      </g>
    </g>
  </g>
  <g data-transition="neutral->shy_love" data-frame-index="4" transform="translate(216 0)">
    <rect x="1" y="1" width="70" height="86" class="frame"/>
    <text x="4" y="8">neutral->shy_love</text>
    <text x="4" y="14" class="label">f4 80%</text>
    <g transform="translate(4.04 17.72) rotate(-3.84 50 43) scale(0.61)">
      <image href="/assets/1.png" x="0" y="0" width="100" height="100" preserveAspectRatio="xMidYMid meet" class="character-image"/>
      <g opacity="0.86"><path d="M67 22c-2-4-8-2-6 3c1 3 6 6 6 6s5-3 6-6c2-5-4-7-6-3z" class="effect-fill"/></g>
      <g class="bubble-group">
        <rect x="20" y="4" width="60" height="13" rx="4" class="bubble"/>
        <path d="M45 17l5 4l3-4" class="bubble-tail"/>
        <text x="24" y="13">eep...</text>
      </g>
    </g>
  </g>
  <g data-transition="neutral->shy_love" data-frame-index="5" transform="translate(288 0)">
    <rect x="1" y="1" width="70" height="86" class="frame"/>
    <text x="4" y="8">neutral->shy_love</text>
    <text x="4" y="14" class="label">f5 100%</text>
    <g transform="translate(4 18.5) rotate(-4 50 43) scale(0.61)">
      <image href="/assets/1.png" x="0" y="0" width="100" height="100" preserveAspectRatio="xMidYMid meet" class="character-image"/>
      <g opacity="0.9"><path d="M67 22c-2-4-8-2-6 3c1 3 6 6 6 6s5-3 6-6c2-5-4-7-6-3z" class="effect-fill"/></g>
      <g class="bubble-group">
        <rect x="20" y="4" width="60" height="13" rx="4" class="bubble"/>
        <path d="M45 17l5 4l3-4" class="bubble-tail"/>
        <text x="24" y="13">eep...</text>
      </g>
    </g>
  </g>
  <g data-transition="neutral->hungry" data-frame-index="0" transform="translate(0 88)">
    <rect x="1" y="1" width="70" height="86" class="frame"/>
    <text x="4" y="8">neutral->hungry</text>
    <text x="4" y="14" class="label">f0 0%</text>
    <g transform="translate(5 18) rotate(0 50 43) scale(0.62)">
      <image href="/assets/1.png" x="0" y="0" width="100" height="100" preserveAspectRatio="xMidYMid meet" class="character-image"/>
      <g class="bubble-group">
        <rect x="20" y="4" width="60" height="13" rx="4" class="bubble"/>
        <path d="M45 17l5 4l3-4" class="bubble-tail"/>
        <text x="24" y="13">snack?</text>
      </g>
    </g>
  </g>
  <g data-transition="neutral->hungry" data-frame-index="1" transform="translate(72 88)">
    <rect x="1" y="1" width="70" height="86" class="frame"/>
    <text x="4" y="8">neutral->hungry</text>
    <text x="4" y="14" class="label">f1 20%</text>
    <g transform="translate(5 18.02) rotate(2.85 50 43) scale(0.62)">
      <image href="/assets/1.png" x="0" y="0" width="100" height="100" preserveAspectRatio="xMidYMid meet" class="character-image"/>
      <g class="bubble-group">
        <rect x="20" y="4" width="60" height="13" rx="4" class="bubble"/>
        <path d="M45 17l5 4l3-4" class="bubble-tail"/>
        <text x="24" y="13">snack?</text>
      </g>
    </g>
  </g>
  <g data-transition="neutral->hungry" data-frame-index="3" transform="translate(144 88)">
    <rect x="1" y="1" width="70" height="86" class="frame"/>
    <text x="4" y="8">neutral->hungry</text>
    <text x="4" y="14" class="label">f3 60%</text>
    <g transform="translate(5 18.18) rotate(-1.76 50 43) scale(0.62)">
      <image href="/assets/1.png" x="0" y="0" width="100" height="100" preserveAspectRatio="xMidYMid meet" class="character-image"/>
      <g class="bubble-group">
        <rect x="20" y="4" width="60" height="13" rx="4" class="bubble"/>
        <path d="M45 17l5 4l3-4" class="bubble-tail"/>
        <text x="24" y="13">snack?</text>
      </g>
    </g>
  </g>
  <g data-transition="neutral->hungry" data-frame-index="4" transform="translate(216 88)">
    <rect x="1" y="1" width="70" height="86" class="frame"/>
    <text x="4" y="8">neutral->hungry</text>
    <text x="4" y="14" class="label">f4 80%</text>
    <g transform="translate(5 18.32) rotate(-2.85 50 43) scale(0.61)">
      <image href="/assets/1.png" x="0" y="0" width="100" height="100" preserveAspectRatio="xMidYMid meet" class="character-image"/>
      <g class="bubble-group">
        <rect x="20" y="4" width="60" height="13" rx="4" class="bubble"/>
        <path d="M45 17l5 4l3-4" class="bubble-tail"/>
        <text x="24" y="13">snack?</text>
      </g>
    </g>
  </g>
  <g data-transition="neutral->hungry" data-frame-index="5" transform="translate(288 88)">
    <rect x="1" y="1" width="70" height="86" class="frame"/>
    <text x="4" y="8">neutral->hungry</text>
    <text x="4" y="14" class="label">f5 100%</text>
    <g transform="translate(5 18.5) rotate(0 50 43) scale(0.61)">
      <image href="/assets/1.png" x="0" y="0" width="100" height="100" preserveAspectRatio="xMidYMid meet" class="character-image"/>
      <g opacity="0.75"><text x="66" y="26">?</text></g>
      <g class="bubble-group">
        <rect x="20" y="4" width="60" height="13" rx="4" class="bubble"/>
        <path d="M45 17l5 4l3-4" class="bubble-tail"/>
        <text x="24" y="13">snack?</text>
      </g>
    </g>
  </g>
  <g data-transition="neutral->sleepy" data-frame-index="0" transform="translate(0 176)">
    <rect x="1" y="1" width="70" height="86" class="frame"/>
    <text x="4" y="8">neutral->sleepy</text>
    <text x="4" y="14" class="label">f0 0%</text>
    <g transform="translate(5 18) rotate(0 50 43) scale(0.62)">
      <image href="/assets/1.png" x="0" y="0" width="100" height="100" preserveAspectRatio="xMidYMid meet" class="character-image"/>
      <g class="bubble-group">
        <rect x="20" y="4" width="60" height="13" rx="4" class="bubble"/>
        <path d="M45 17l5 4l3-4" class="bubble-tail"/>
        <text x="24" y="13">zzz...</text>
      </g>
    </g>
  </g>
  <g data-transition="neutral->sleepy" data-frame-index="1" transform="translate(72 176)">
    <rect x="1" y="1" width="70" height="86" class="frame"/>
    <text x="4" y="8">neutral->sleepy</text>
    <text x="4" y="14" class="label">f1 20%</text>
    <g transform="translate(5 18.3) rotate(0 50 43) scale(0.62)">
      <image href="/assets/1.png" x="0" y="0" width="100" height="100" preserveAspectRatio="xMidYMid meet" class="character-image"/>
      <g class="bubble-group">
        <rect x="20" y="4" width="60" height="13" rx="4" class="bubble"/>
        <path d="M45 17l5 4l3-4" class="bubble-tail"/>
        <text x="24" y="13">zzz...</text>
      </g>
    </g>
  </g>
  <g data-transition="neutral->sleepy" data-frame-index="3" transform="translate(144 176)">
    <rect x="1" y="1" width="70" height="86" class="frame"/>
    <text x="4" y="8">neutral->sleepy</text>
    <text x="4" y="14" class="label">f3 60%</text>
    <g transform="translate(5 18.9) rotate(0 50 43) scale(0.61)">
      <image href="/assets/1.png" x="0" y="0" width="100" height="100" preserveAspectRatio="xMidYMid meet" class="character-image"/>
      <g class="bubble-group">
        <rect x="20" y="4" width="60" height="13" rx="4" class="bubble"/>
        <path d="M45 17l5 4l3-4" class="bubble-tail"/>
        <text x="24" y="13">zzz...</text>
      </g>
    </g>
  </g>
  <g data-transition="neutral->sleepy" data-frame-index="4" transform="translate(216 176)">
    <rect x="1" y="1" width="70" height="86" class="frame"/>
    <text x="4" y="8">neutral->sleepy</text>
    <text x="4" y="14" class="label">f4 80%</text>
    <g transform="translate(5 19.2) rotate(0 50 43) scale(0.61)">
      <image href="/assets/1.png" x="0" y="0" width="100" height="100" preserveAspectRatio="xMidYMid meet" class="character-image"/>
      <g opacity="0.8"><text x="66" y="20">Z</text></g>
      <g class="bubble-group">
        <rect x="20" y="4" width="60" height="13" rx="4" class="bubble"/>
        <path d="M45 17l5 4l3-4" class="bubble-tail"/>
        <text x="24" y="13">zzz...</text>
      </g>
    </g>
  </g>
  <g data-transition="neutral->sleepy" data-frame-index="5" transform="translate(288 176)">
    <rect x="1" y="1" width="70" height="86" class="frame"/>
    <text x="4" y="8">neutral->sleepy</text>
    <text x="4" y="14" class="label">f5 100%</text>
    <g transform="translate(5 19.5) rotate(0 50 43) scale(0.6)">
      <image href="/assets/1.png" x="0" y="0" width="100" height="100" preserveAspectRatio="xMidYMid meet" class="character-image"/>
      <g opacity="1"><text x="66" y="20">Z</text></g>
      <g class="bubble-group">
        <rect x="20" y="4" width="60" height="13" rx="4" class="bubble"/>
        <path d="M45 17l5 4l3-4" class="bubble-tail"/>
        <text x="24" y="13">zzz...</text>
      </g>
    </g>
  </g>
  <g data-transition="neutral->hurt" data-frame-index="0" transform="translate(0 264)">
    <rect x="1" y="1" width="70" height="86" class="frame"/>
    <text x="4" y="8">neutral->hurt</text>
    <text x="4" y="14" class="label">f0 0%</text>
    <g transform="translate(6.2 18) rotate(0 50 43) scale(0.62)">
      <image href="/assets/1.png" x="0" y="0" width="100" height="100" preserveAspectRatio="xMidYMid meet" class="character-image"/>
      <g class="bubble-group">
        <rect x="20" y="4" width="60" height="13" rx="4" class="bubble"/>
        <path d="M45 17l5 4l3-4" class="bubble-tail"/>
        <text x="24" y="13">ow...</text>
      </g>
    </g>
  </g>
  <g data-transition="neutral->hurt" data-frame-index="1" transform="translate(72 264)">
    <rect x="1" y="1" width="70" height="86" class="frame"/>
    <text x="4" y="8">neutral->hurt</text>
    <text x="4" y="14" class="label">f1 20%</text>
    <g transform="translate(6.56 18.36) rotate(1.08 50 43) scale(0.61)">
      <image href="/assets/1.png" x="0" y="0" width="100" height="100" preserveAspectRatio="xMidYMid meet" class="character-image"/>
      <g class="bubble-group">
        <rect x="20" y="4" width="60" height="13" rx="4" class="bubble"/>
        <path d="M45 17l5 4l3-4" class="bubble-tail"/>
        <text x="24" y="13">ow...</text>
      </g>
    </g>
  </g>
  <g data-transition="neutral->hurt" data-frame-index="3" transform="translate(144 264)">
    <rect x="1" y="1" width="70" height="86" class="frame"/>
    <text x="4" y="8">neutral->hurt</text>
    <text x="4" y="14" class="label">f3 60%</text>
    <g transform="translate(4.64 18.84) rotate(2.52 50 43) scale(0.6)">
      <image href="/assets/1.png" x="0" y="0" width="100" height="100" preserveAspectRatio="xMidYMid meet" class="character-image"/>
      <g opacity="0.63"><path d="M38 44c-3 5-2 8 1 8s4-3-1-8z" class="effect-tear"/><path d="M61 44c-3 5-2 8 1 8s4-3-1-8z" class="effect-tear"/></g>
      <g class="bubble-group">
        <rect x="20" y="4" width="60" height="13" rx="4" class="bubble"/>
        <path d="M45 17l5 4l3-4" class="bubble-tail"/>
        <text x="24" y="13">ow...</text>
      </g>
    </g>
  </g>
  <g data-transition="neutral->hurt" data-frame-index="4" transform="translate(216 264)">
    <rect x="1" y="1" width="70" height="86" class="frame"/>
    <text x="4" y="8">neutral->hurt</text>
    <text x="4" y="14" class="label">f4 80%</text>
    <g transform="translate(4.76 18.96) rotate(2.88 50 43) scale(0.6)">
      <image href="/assets/1.png" x="0" y="0" width="100" height="100" preserveAspectRatio="xMidYMid meet" class="character-image"/>
      <g opacity="0.72"><path d="M38 44c-3 5-2 8 1 8s4-3-1-8z" class="effect-tear"/><path d="M61 44c-3 5-2 8 1 8s4-3-1-8z" class="effect-tear"/></g>
      <g class="bubble-group">
        <rect x="20" y="4" width="60" height="13" rx="4" class="bubble"/>
        <path d="M45 17l5 4l3-4" class="bubble-tail"/>
        <text x="24" y="13">ow...</text>
      </g>
    </g>
  </g>
  <g data-transition="neutral->hurt" data-frame-index="5" transform="translate(288 264)">
    <rect x="1" y="1" width="70" height="86" class="frame"/>
    <text x="4" y="8">neutral->hurt</text>
    <text x="4" y="14" class="label">f5 100%</text>
    <g transform="translate(4.8 19) rotate(3 50 43) scale(0.6)">
      <image href="/assets/1.png" x="0" y="0" width="100" height="100" preserveAspectRatio="xMidYMid meet" class="character-image"/>
      <g opacity="0.75"><path d="M38 44c-3 5-2 8 1 8s4-3-1-8z" class="effect-tear"/><path d="M61 44c-3 5-2 8 1 8s4-3-1-8z" class="effect-tear"/></g>
      <g class="bubble-group">
        <rect x="20" y="4" width="60" height="13" rx="4" class="bubble"/>
        <path d="M45 17l5 4l3-4" class="bubble-tail"/>
        <text x="24" y="13">ow...</text>
      </g>
    </g>
  </g>
  <g data-transition="neutral->curious" data-frame-index="0" transform="translate(0 352)">
    <rect x="1" y="1" width="70" height="86" class="frame"/>
    <text x="4" y="8">neutral->curious</text>
    <text x="4" y="14" class="label">f0 0%</text>
    <g transform="translate(5 18) rotate(0 50 43) scale(0.62)">
      <image href="/assets/1.png" x="0" y="0" width="100" height="100" preserveAspectRatio="xMidYMid meet" class="character-image"/>
      <g class="bubble-group">
        <rect x="20" y="4" width="60" height="13" rx="4" class="bubble"/>
        <path d="M45 17l5 4l3-4" class="bubble-tail"/>
        <text x="24" y="13">hmm?</text>
      </g>
    </g>
  </g>
  <g data-transition="neutral->curious" data-frame-index="1" transform="translate(72 352)">
    <rect x="1" y="1" width="70" height="86" class="frame"/>
    <text x="4" y="8">neutral->curious</text>
    <text x="4" y="14" class="label">f1 20%</text>
    <g transform="translate(5 17.72) rotate(0.62 50 43) scale(0.62)">
      <image href="/assets/1.png" x="0" y="0" width="100" height="100" preserveAspectRatio="xMidYMid meet" class="character-image"/>
      <g class="bubble-group">
        <rect x="20" y="4" width="60" height="13" rx="4" class="bubble"/>
        <path d="M45 17l5 4l3-4" class="bubble-tail"/>
        <text x="24" y="13">hmm?</text>
      </g>
    </g>
  </g>
  <g data-transition="neutral->curious" data-frame-index="3" transform="translate(144 352)">
    <rect x="1" y="1" width="70" height="86" class="frame"/>
    <text x="4" y="8">neutral->curious</text>
    <text x="4" y="14" class="label">f3 60%</text>
    <g transform="translate(5 17.5) rotate(-5.76 50 43) scale(0.63)">
      <image href="/assets/1.png" x="0" y="0" width="100" height="100" preserveAspectRatio="xMidYMid meet" class="character-image"/>
      <g opacity="0.75"><text x="66" y="26">?</text></g>
      <g class="bubble-group">
        <rect x="20" y="4" width="60" height="13" rx="4" class="bubble"/>
        <path d="M45 17l5 4l3-4" class="bubble-tail"/>
        <text x="24" y="13">hmm?</text>
      </g>
    </g>
  </g>
  <g data-transition="neutral->curious" data-frame-index="4" transform="translate(216 352)">
    <rect x="1" y="1" width="70" height="86" class="frame"/>
    <text x="4" y="8">neutral->curious</text>
    <text x="4" y="14" class="label">f4 80%</text>
    <g transform="translate(5 17.5) rotate(-6.85 50 43) scale(0.63)">
      <image href="/assets/1.png" x="0" y="0" width="100" height="100" preserveAspectRatio="xMidYMid meet" class="character-image"/>
      <g opacity="0.75"><text x="66" y="26">?</text></g>
      <g class="bubble-group">
        <rect x="20" y="4" width="60" height="13" rx="4" class="bubble"/>
        <path d="M45 17l5 4l3-4" class="bubble-tail"/>
        <text x="24" y="13">hmm?</text>
      </g>
    </g>
  </g>
  <g data-transition="neutral->curious" data-frame-index="5" transform="translate(288 352)">
    <rect x="1" y="1" width="70" height="86" class="frame"/>
    <text x="4" y="8">neutral->curious</text>
    <text x="4" y="14" class="label">f5 100%</text>
    <g transform="translate(5 17.5) rotate(-4 50 43) scale(0.63)">
      <image href="/assets/1.png" x="0" y="0" width="100" height="100" preserveAspectRatio="xMidYMid meet" class="character-image"/>
      <g opacity="0.75"><text x="66" y="26">?</text></g>
      <g class="bubble-group">
        <rect x="20" y="4" width="60" height="13" rx="4" class="bubble"/>
        <path d="M45 17l5 4l3-4" class="bubble-tail"/>
        <text x="24" y="13">hmm?</text>
      </g>
    </g>
  </g>
</svg>
