<svg xmlns="http://www.w3.org/2000/svg" viewBox="0 0 360 440" role="img" aria-labelledby="title desc">
  <title id="title">SVGotchi deterministic transition previews</title>
  <desc id="desc">Five multi-frame emotion transition previews using the uploaded character asset from assets/1.png.</desc>
  <style>
    .bg { fill: #140f1f; }
    .frame { fill: none; stroke: #5f4a7d; stroke-width: 1; }
    .character-image { image-rendering: auto; }
    .face-patch { fill: #fff1f0; stroke: #f0c9cf; stroke-width: 0.3; }
    .eye-fill { fill: #6f54b8; stroke: #3c286d; stroke-width: 0.55; }
    .eye-shine { fill: #fffaff; }
    .eye-heart { fill: #ff78ad; stroke: #963f72; stroke-width: 0.35; }
    .mouth-line, .eye-line, .brow-line { fill: none; stroke: #4b2a4d; stroke-width: 1.25; stroke-linecap: round; stroke-linejoin: round; }
    .blush-fill { fill: #ff9ab8; }
    .effect-fill { fill: #ff7dac; }
    .effect-tear { fill: #7ed8ff; }
    .effect-line { stroke: #ffe889; stroke-width: 1.2; stroke-linecap: round; fill: none; }
    .effect-symbol { fill: #ffe889; font-size: 8px; font-weight: 700; }
    .bubble { fill: #211832; stroke: #cbb5ea; stroke-width: 1; }
    .bubble-tail { fill: #cdb9ff; }
    text { fill: #f7eaff; font-family: monospace; font-size: 4px; }
    .label { font-size: 3.5px; }
    .muted { opacity: 0.65; }
    .bubble-group text { font-size: 3px; }
  </style>
  <rect class="bg" width="360" height="440"/>
  <g data-transition="neutral->shy_love" data-frame-index="0" transform="translate(0 0)">
    <rect x="1" y="1" width="70" height="86" class="frame"/>
    <text x="4" y="8">neutral->shy_love</text>
    <text x="4" y="14" class="label">f0 0%</text>
    <g transform="translate(5 18) rotate(0 50 40) scale(0.62)">
      <image href="/assets/1.png" x="0" y="0" width="100" height="80" preserveAspectRatio="xMidYMid meet" class="character-image"/>
      <g class="bubble-group">
        <rect x="20" y="4" width="60" height="13" rx="4" class="bubble"/>
        <path d="M45 17l5 4l3-4" class="bubble-tail"/>
        <text x="24" y="13">eep...</text>
      </g>
    </g>
  </g>
  <g data-transition="neutral->shy_love" data-frame-index="1" transform="translate(72 0)">
    <rect x="1" y="1" width="70" height="86" class="frame"/>
    <text x="4" y="8">neutral->shy_love</text>
    <text x="4" y="14" class="label">f1 20%</text>
    <g transform="translate(4.64 17.42) rotate(-1.44 50 40) scale(0.62)">
      <image href="/assets/1.png" x="0" y="0" width="100" height="80" preserveAspectRatio="xMidYMid meet" class="character-image"/>
      <g class="anime-face" data-face-overlay="active">
        <g class="face-cover">
          <ellipse cx="41.8" cy="31.6" rx="7.3" ry="4.9" class="face-patch"/>
          <ellipse cx="58.2" cy="31.6" rx="7.3" ry="4.9" class="face-patch"/>
          <ellipse cx="50" cy="39.9" rx="6" ry="3.3" class="face-patch"/>
        </g>
        <ellipse cx="41.8" cy="31.6" rx="4.9" ry="5.8" class="eye-fill"/><ellipse cx="58.2" cy="31.6" rx="4.9" ry="5.8" class="eye-fill"/><circle cx="40.2" cy="29.2" r="1.1" class="eye-shine"/><circle cx="56.6" cy="29.2" r="1.1" class="eye-shine"/>
        <path d="M45 39.8q5 4 10 0" class="mouth-line"/>
        <ellipse cx="36.8" cy="38" rx="5.4" ry="2.1" class="blush-fill" opacity="0.36"/>
        <ellipse cx="63.2" cy="38" rx="5.4" ry="2.1" class="blush-fill" opacity="0.36"/>
      </g>
      <g class="bubble-group">
        <rect x="20" y="4" width="60" height="13" rx="4" class="bubble"/>
        <path d="M45 17l5 4l3-4" class="bubble-tail"/>
        <text x="24" y="13">eep...</text>
      </g>
    </g>
  </g>
  <g data-transition="neutral->shy_love" data-frame-index="3" transform="translate(144 0)">
    <rect x="1" y="1" width="70" height="86" class="frame"/>
    <text x="4" y="8">neutral->shy_love</text>
    <text x="4" y="14" class="label">f3 60%</text>
    <g transform="translate(4.16 17.95) rotate(-3.36 50 40) scale(0.61)">
      <image href="/assets/1.png" x="0" y="0" width="100" height="80" preserveAspectRatio="xMidYMid meet" class="character-image"/>
      <g class="anime-face" data-face-overlay="active">
        <g class="face-cover">
          <ellipse cx="41.8" cy="31.6" rx="7.3" ry="4.9" class="face-patch"/>
          <ellipse cx="58.2" cy="31.6" rx="7.3" ry="4.9" class="face-patch"/>
          <ellipse cx="50" cy="39.9" rx="6" ry="3.3" class="face-patch"/>
        </g>
        <path d="M36.8 28.4l9.4-3M53.8 25.4l9.4 3" class="brow-line"/>
        <path d="M36.8 32.4q5 3.5 10 0M53.2 32.4q5 3.5 10 0" class="eye-line"/>
        <path d="M45 39.8q5 4 10 0" class="mouth-line"/>
        <ellipse cx="36.8" cy="38" rx="5.4" ry="2.1" class="blush-fill" opacity="0.84"/>
        <ellipse cx="63.2" cy="38" rx="5.4" ry="2.1" class="blush-fill" opacity="0.84"/>
      </g>
      <g opacity="0.76"><path d="M67 22c-2-4-8-2-6 3c1 3 6 6 6 6s5-3 6-6c2-5-4-7-6-3z" class="effect-fill"/></g>
      <g class="bubble-group">
        <rect x="20" y="4" width="60" height="13" rx="4" class="bubble"/>
        <path d="M45 17l5 4l3-4" class="bubble-tail"/>
        <text x="24" y="13">eep...</text>
      </g>
    </g>
  </g>
  <g data-transition="neutral->shy_love" data-frame-index="4" transform="translate(216 0)">
    <rect x="1" y="1" width="70" height="86" class="frame"/>
    <text x="4" y="8">neutral->shy_love</text>
    <text x="4" y="14" class="label">f4 80%</text>
    <g transform="translate(4.04 17.72) rotate(-3.84 50 40) scale(0.61)">
      <image href="/assets/1.png" x="0" y="0" width="100" height="80" preserveAspectRatio="xMidYMid meet" class="character-image"/>
      <g class="anime-face" data-face-overlay="active">
        <g class="face-cover">
          <ellipse cx="41.8" cy="31.6" rx="7.3" ry="4.9" class="face-patch"/>
          <ellipse cx="58.2" cy="31.6" rx="7.3" ry="4.9" class="face-patch"/>
          <ellipse cx="50" cy="39.9" rx="6" ry="3.3" class="face-patch"/>
        </g>
        <path d="M36.8 28.4l9.4-3M53.8 25.4l9.4 3" class="brow-line"/>
        <path d="M36.8 32.4q5 3.5 10 0M53.2 32.4q5 3.5 10 0" class="eye-line"/>
        <path d="M45 39.8q5 4 10 0" class="mouth-line"/>
        <ellipse cx="36.8" cy="38" rx="5.4" ry="2.1" class="blush-fill" opacity="0.96"/>
        <ellipse cx="63.2" cy="38" rx="5.4" ry="2.1" class="blush-fill" opacity="0.96"/>
      </g>
      <g opacity="0.86"><path d="M67 22c-2-4-8-2-6 3c1 3 6 6 6 6s5-3 6-6c2-5-4-7-6-3z" class="effect-fill"/></g>
      <g class="bubble-group">
        <rect x="20" y="4" width="60" height="13" rx="4" class="bubble"/>
        <path d="M45 17l5 4l3-4" class="bubble-tail"/>
        <text x="24" y="13">eep...</text>
      </g>
    </g>
  </g>
  <g data-transition="neutral->shy_love" data-frame-index="5" transform="translate(288 0)">
    <rect x="1" y="1" width="70" height="86" class="frame"/>
    <text x="4" y="8">neutral->shy_love</text>
    <text x="4" y="14" class="label">f5 100%</text>
    <g transform="translate(4 18.5) rotate(-4 50 40) scale(0.61)">
      <image href="/assets/1.png" x="0" y="0" width="100" height="80" preserveAspectRatio="xMidYMid meet" class="character-image"/>
      <g class="anime-face" data-face-overlay="active">
        <g class="face-cover">
          <ellipse cx="41.8" cy="31.6" rx="7.3" ry="4.9" class="face-patch"/>
          <ellipse cx="58.2" cy="31.6" rx="7.3" ry="4.9" class="face-patch"/>
          <ellipse cx="50" cy="39.9" rx="6" ry="3.3" class="face-patch"/>
        </g>
        <path d="M36.8 28.4l9.4-3M53.8 25.4l9.4 3" class="brow-line"/>
        <path d="M36.8 32.4q5 3.5 10 0M53.2 32.4q5 3.5 10 0" class="eye-line"/>
        <path d="M45 39.8q5 4 10 0" class="mouth-line"/>
        <ellipse cx="36.8" cy="38" rx="5.4" ry="2.1" class="blush-fill" opacity="1"/>
        <ellipse cx="63.2" cy="38" rx="5.4" ry="2.1" class="blush-fill" opacity="1"/>
      </g>
      <g opacity="0.9"><path d="M67 22c-2-4-8-2-6 3c1 3 6 6 6 6s5-3 6-6c2-5-4-7-6-3z" class="effect-fill"/></g>
      <g class="bubble-group">
        <rect x="20" y="4" width="60" height="13" rx="4" class="bubble"/>
        <path d="M45 17l5 4l3-4" class="bubble-tail"/>
        <text x="24" y="13">eep...</text>
      </g>
    </g>
  </g>
  <g data-transition="neutral->hungry" data-frame-index="0" transform="translate(0 88)">
    <rect x="1" y="1" width="70" height="86" class="frame"/>
    <text x="4" y="8">neutral->hungry</text>
    <text x="4" y="14" class="label">f0 0%</text>
    <g transform="translate(5 18) rotate(0 50 40) scale(0.62)">
      <image href="/assets/1.png" x="0" y="0" width="100" height="80" preserveAspectRatio="xMidYMid meet" class="character-image"/>
      <g class="bubble-group">
        <rect x="20" y="4" width="60" height="13" rx="4" class="bubble"/>
        <path d="M45 17l5 4l3-4" class="bubble-tail"/>
        <text x="24" y="13">snack?</text>
      </g>
    </g>
  </g>
  <g data-transition="neutral->hungry" data-frame-index="1" transform="translate(72 88)">
    <rect x="1" y="1" width="70" height="86" class="frame"/>
    <text x="4" y="8">neutral->hungry</text>
    <text x="4" y="14" class="label">f1 20%</text>
    <g transform="translate(5 18.02) rotate(2.85 50 40) scale(0.62)">
      <image href="/assets/1.png" x="0" y="0" width="100" height="80" preserveAspectRatio="xMidYMid meet" class="character-image"/>
      <g class="bubble-group">
        <rect x="20" y="4" width="60" height="13" rx="4" class="bubble"/>
        <path d="M45 17l5 4l3-4" class="bubble-tail"/>
        <text x="24" y="13">snack?</text>
      </g>
    </g>
  </g>
  <g data-transition="neutral->hungry" data-frame-index="3" transform="translate(144 88)">
    <rect x="1" y="1" width="70" height="86" class="frame"/>
    <text x="4" y="8">neutral->hungry</text>
    <text x="4" y="14" class="label">f3 60%</text>
    <g transform="translate(5 18.18) rotate(-1.76 50 40) scale(0.62)">
      <image href="/assets/1.png" x="0" y="0" width="100" height="80" preserveAspectRatio="xMidYMid meet" class="character-image"/>
      <g class="anime-face" data-face-overlay="active">
        <g class="face-cover">
          <ellipse cx="41.8" cy="31.6" rx="7.3" ry="4.9" class="face-patch"/>
          <ellipse cx="58.2" cy="31.6" rx="7.3" ry="4.9" class="face-patch"/>
          <ellipse cx="50" cy="39.9" rx="6" ry="3.3" class="face-patch"/>
        </g>
        <ellipse cx="41.8" cy="31.6" rx="4.9" ry="5.8" class="eye-fill"/><ellipse cx="58.2" cy="31.6" rx="4.9" ry="5.8" class="eye-fill"/><circle cx="40.2" cy="29.2" r="1.1" class="eye-shine"/><circle cx="56.6" cy="29.2" r="1.1" class="eye-shine"/>
        <path d="M49 38.7q1-1 2 0q1 2 0 4q-1 1-2 0q-1-2 0-4z" class="mouth-line"/>
        <ellipse cx="36.8" cy="38" rx="5.4" ry="2.1" class="blush-fill" opacity="0"/>
        <ellipse cx="63.2" cy="38" rx="5.4" ry="2.1" class="blush-fill" opacity="0"/>
      </g>
      <g class="bubble-group">
        <rect x="20" y="4" width="60" height="13" rx="4" class="bubble"/>
        <path d="M45 17l5 4l3-4" class="bubble-tail"/>
        <text x="24" y="13">snack?</text>
      </g>
    </g>
  </g>
  <g data-transition="neutral->hungry" data-frame-index="4" transform="translate(216 88)">
    <rect x="1" y="1" width="70" height="86" class="frame"/>
    <text x="4" y="8">neutral->hungry</text>
    <text x="4" y="14" class="label">f4 80%</text>
    <g transform="translate(5 18.32) rotate(-2.85 50 40) scale(0.61)">
      <image href="/assets/1.png" x="0" y="0" width="100" height="80" preserveAspectRatio="xMidYMid meet" class="character-image"/>
      <g class="anime-face" data-face-overlay="active">
        <g class="face-cover">
          <ellipse cx="41.8" cy="31.6" rx="7.3" ry="4.9" class="face-patch"/>
          <ellipse cx="58.2" cy="31.6" rx="7.3" ry="4.9" class="face-patch"/>
          <ellipse cx="50" cy="39.9" rx="6" ry="3.3" class="face-patch"/>
        </g>
        <path d="M36.8 28.4l9.4-3M53.8 25.4l9.4 3" class="brow-line"/>
        <ellipse cx="41.8" cy="31.6" rx="4.9" ry="5.8" class="eye-fill"/><ellipse cx="58.2" cy="31.6" rx="4.9" ry="5.8" class="eye-fill"/><circle cx="40.2" cy="29.2" r="1.1" class="eye-shine"/><circle cx="56.6" cy="29.2" r="1.1" class="eye-shine"/>
        <path d="M49 38.7q1-1 2 0q1 2 0 4q-1 1-2 0q-1-2 0-4z" class="mouth-line"/>
        <ellipse cx="36.8" cy="38" rx="5.4" ry="2.1" class="blush-fill" opacity="0"/>
        <ellipse cx="63.2" cy="38" rx="5.4" ry="2.1" class="blush-fill" opacity="0"/>
      </g>
      <g class="bubble-group">
        <rect x="20" y="4" width="60" height="13" rx="4" class="bubble"/>
        <path d="M45 17l5 4l3-4" class="bubble-tail"/>
        <text x="24" y="13">snack?</text>
      </g>
    </g>
  </g>
  <g data-transition="neutral->hungry" data-frame-index="5" transform="translate(288 88)">
    <rect x="1" y="1" width="70" height="86" class="frame"/>
    <text x="4" y="8">neutral->hungry</text>
    <text x="4" y="14" class="label">f5 100%</text>
    <g transform="translate(5 18.5) rotate(0 50 40) scale(0.61)">
      <image href="/assets/1.png" x="0" y="0" width="100" height="80" preserveAspectRatio="xMidYMid meet" class="character-image"/>
      <g class="anime-face" data-face-overlay="active">
        <g class="face-cover">
          <ellipse cx="41.8" cy="31.6" rx="7.3" ry="4.9" class="face-patch"/>
          <ellipse cx="58.2" cy="31.6" rx="7.3" ry="4.9" class="face-patch"/>
          <ellipse cx="50" cy="39.9" rx="6" ry="3.3" class="face-patch"/>
        </g>
        <path d="M36.8 28.4l9.4-3M53.8 25.4l9.4 3" class="brow-line"/>
        <ellipse cx="41.8" cy="31.6" rx="4.9" ry="5.8" class="eye-fill"/><ellipse cx="58.2" cy="31.6" rx="4.9" ry="5.8" class="eye-fill"/><circle cx="40.2" cy="29.2" r="1.1" class="eye-shine"/><circle cx="56.6" cy="29.2" r="1.1" class="eye-shine"/>
        <path d="M49 38.7q1-1 2 0q1 2 0 4q-1 1-2 0q-1-2 0-4z" class="mouth-line"/>
        <ellipse cx="36.8" cy="38" rx="5.4" ry="2.1" class="blush-fill" opacity="0"/>
        <ellipse cx="63.2" cy="38" rx="5.4" ry="2.1" class="blush-fill" opacity="0"/>
      </g>
      <g opacity="0.75"><text x="67" y="26" class="effect-symbol">?</text></g>
      <g class="bubble-group">
        <rect x="20" y="4" width="60" height="13" rx="4" class="bubble"/>
        <path d="M45 17l5 4l3-4" class="bubble-tail"/>
        <text x="24" y="13">snack?</text>
      </g>
    </g>
  </g>
  <g data-transition="neutral->sleepy" data-frame-index="0" transform="translate(0 176)">
    <rect x="1" y="1" width="70" height="86" class="frame"/>
    <text x="4" y="8">neutral->sleepy</text>
    <text x="4" y="14" class="label">f0 0%</text>
    <g transform="translate(5 18) rotate(0 50 40) scale(0.62)">
      <image href="/assets/1.png" x="0" y="0" width="100" height="80" preserveAspectRatio="xMidYMid meet" class="character-image"/>
      <g class="bubble-group">
        <rect x="20" y="4" width="60" height="13" rx="4" class="bubble"/>
        <path d="M45 17l5 4l3-4" class="bubble-tail"/>
        <text x="24" y="13">zzz...</text>
      </g>
    </g>
  </g>
  <g data-transition="neutral->sleepy" data-frame-index="1" transform="translate(72 176)">
    <rect x="1" y="1" width="70" height="86" class="frame"/>
    <text x="4" y="8">neutral->sleepy</text>
    <text x="4" y="14" class="label">f1 20%</text>
    <g transform="translate(5 18.3) rotate(0 50 40) scale(0.62)">
      <image href="/assets/1.png" x="0" y="0" width="100" height="80" preserveAspectRatio="xMidYMid meet" class="character-image"/>
      <g class="bubble-group">
        <rect x="20" y="4" width="60" height="13" rx="4" class="bubble"/>
        <path d="M45 17l5 4l3-4" class="bubble-tail"/>
        <text x="24" y="13">zzz...</text>
      </g>
    </g>
  </g>
  <g data-transition="neutral->sleepy" data-frame-index="3" transform="translate(144 176)">
    <rect x="1" y="1" width="70" height="86" class="frame"/>
    <text x="4" y="8">neutral->sleepy</text>
    <text x="4" y="14" class="label">f3 60%</text>
    <g transform="translate(5 18.9) rotate(0 50 40) scale(0.61)">
      <image href="/assets/1.png" x="0" y="0" width="100" height="80" preserveAspectRatio="xMidYMid meet" class="character-image"/>
      <g class="anime-face" data-face-overlay="active">
        <g class="face-cover">
          <ellipse cx="41.8" cy="31.6" rx="7.3" ry="4.9" class="face-patch"/>
          <ellipse cx="58.2" cy="31.6" rx="7.3" ry="4.9" class="face-patch"/>
          <ellipse cx="50" cy="39.9" rx="6" ry="3.3" class="face-patch"/>
        </g>
        <ellipse cx="41.8" cy="32" rx="5" ry="1.35" class="eye-fill"/><ellipse cx="58.2" cy="32" rx="5" ry="1.35" class="eye-fill"/>
        <path d="M46 40.6h8" class="mouth-line"/>
        <ellipse cx="36.8" cy="38" rx="5.4" ry="2.1" class="blush-fill" opacity="0"/>
        <ellipse cx="63.2" cy="38" rx="5.4" ry="2.1" class="blush-fill" opacity="0"/>
      </g>
      <g class="bubble-group">
        <rect x="20" y="4" width="60" height="13" rx="4" class="bubble"/>
        <path d="M45 17l5 4l3-4" class="bubble-tail"/>
        <text x="24" y="13">zzz...</text>
      </g>
    </g>
  </g>
  <g data-transition="neutral->sleepy" data-frame-index="4" transform="translate(216 176)">
    <rect x="1" y="1" width="70" height="86" class="frame"/>
    <text x="4" y="8">neutral->sleepy</text>
    <text x="4" y="14" class="label">f4 80%</text>
    <g transform="translate(5 19.2) rotate(0 50 40) scale(0.61)">
      <image href="/assets/1.png" x="0" y="0" width="100" height="80" preserveAspectRatio="xMidYMid meet" class="character-image"/>
      <g class="anime-face" data-face-overlay="active">
        <g class="face-cover">
          <ellipse cx="41.8" cy="31.6" rx="7.3" ry="4.9" class="face-patch"/>
          <ellipse cx="58.2" cy="31.6" rx="7.3" ry="4.9" class="face-patch"/>
          <ellipse cx="50" cy="39.9" rx="6" ry="3.3" class="face-patch"/>
        </g>
        <ellipse cx="41.8" cy="32" rx="5" ry="1.35" class="eye-fill"/><ellipse cx="58.2" cy="32" rx="5" ry="1.35" class="eye-fill"/>
        <path d="M46 40.6h8" class="mouth-line"/>
        <ellipse cx="36.8" cy="38" rx="5.4" ry="2.1" class="blush-fill" opacity="0"/>
        <ellipse cx="63.2" cy="38" rx="5.4" ry="2.1" class="blush-fill" opacity="0"/>
      </g>
      <g opacity="0.8"><text x="66" y="20" class="effect-symbol">Zz</text></g>
      <g class="bubble-group">
        <rect x="20" y="4" width="60" height="13" rx="4" class="bubble"/>
        <path d="M45 17l5 4l3-4" class="bubble-tail"/>
        <text x="24" y="13">zzz...</text>
      </g>
    </g>
  </g>
  <g data-transition="neutral->sleepy" data-frame-index="5" transform="translate(288 176)">
    <rect x="1" y="1" width="70" height="86" class="frame"/>
    <text x="4" y="8">neutral->sleepy</text>
    <text x="4" y="14" class="label">f5 100%</text>
    <g transform="translate(5 19.5) rotate(0 50 40) scale(0.6)">
      <image href="/assets/1.png" x="0" y="0" width="100" height="80" preserveAspectRatio="xMidYMid meet" class="character-image"/>
      <g class="anime-face" data-face-overlay="active">
        <g class="face-cover">
          <ellipse cx="41.8" cy="31.6" rx="7.3" ry="4.9" class="face-patch"/>
          <ellipse cx="58.2" cy="31.6" rx="7.3" ry="4.9" class="face-patch"/>
          <ellipse cx="50" cy="39.9" rx="6" ry="3.3" class="face-patch"/>
        </g>
        <ellipse cx="41.8" cy="32" rx="5" ry="1.35" class="eye-fill"/><ellipse cx="58.2" cy="32" rx="5" ry="1.35" class="eye-fill"/>
        <path d="M46 40.6h8" class="mouth-line"/>
        <ellipse cx="36.8" cy="38" rx="5.4" ry="2.1" class="blush-fill" opacity="0"/>
        <ellipse cx="63.2" cy="38" rx="5.4" ry="2.1" class="blush-fill" opacity="0"/>
      </g>
      <g opacity="1"><text x="66" y="20" class="effect-symbol">Zz</text></g>
      <g class="bubble-group">
        <rect x="20" y="4" width="60" height="13" rx="4" class="bubble"/>
        <path d="M45 17l5 4l3-4" class="bubble-tail"/>
        <text x="24" y="13">zzz...</text>
      </g>
    </g>
  </g>
  <g data-transition="neutral->hurt" data-frame-index="0" transform="translate(0 264)">
    <rect x="1" y="1" width="70" height="86" class="frame"/>
    <text x="4" y="8">neutral->hurt</text>
    <text x="4" y="14" class="label">f0 0%</text>
    <g transform="translate(6.2 18) rotate(0 50 40) scale(0.62)">
      <image href="/assets/1.png" x="0" y="0" width="100" height="80" preserveAspectRatio="xMidYMid meet" class="character-image"/>
      <g class="bubble-group">
        <rect x="20" y="4" width="60" height="13" rx="4" class="bubble"/>
        <path d="M45 17l5 4l3-4" class="bubble-tail"/>
        <text x="24" y="13">ow...</text>
      </g>
    </g>
  </g>
  <g data-transition="neutral->hurt" data-frame-index="1" transform="translate(72 264)">
    <rect x="1" y="1" width="70" height="86" class="frame"/>
    <text x="4" y="8">neutral->hurt</text>
    <text x="4" y="14" class="label">f1 20%</text>
    <g transform="translate(6.56 18.36) rotate(1.08 50 40) scale(0.61)">
      <image href="/assets/1.png" x="0" y="0" width="100" height="80" preserveAspectRatio="xMidYMid meet" class="character-image"/>
      <g class="anime-face" data-face-overlay="active">
        <g class="face-cover">
          <ellipse cx="41.8" cy="31.6" rx="7.3" ry="4.9" class="face-patch"/>
          <ellipse cx="58.2" cy="31.6" rx="7.3" ry="4.9" class="face-patch"/>
          <ellipse cx="50" cy="39.9" rx="6" ry="3.3" class="face-patch"/>
        </g>
        <ellipse cx="41.8" cy="31.6" rx="4.9" ry="5.8" class="eye-fill"/><ellipse cx="58.2" cy="31.6" rx="4.9" ry="5.8" class="eye-fill"/><circle cx="40.2" cy="29.2" r="1.1" class="eye-shine"/><circle cx="56.6" cy="29.2" r="1.1" class="eye-shine"/>
        <path d="M44 40.7l3-2l3 2l3-2l3 2" class="mouth-line"/>
        <ellipse cx="36.8" cy="38" rx="5.4" ry="2.1" class="blush-fill" opacity="0"/>
        <ellipse cx="63.2" cy="38" rx="5.4" ry="2.1" class="blush-fill" opacity="0"/>
      </g>
      <g class="bubble-group">
        <rect x="20" y="4" width="60" height="13" rx="4" class="bubble"/>
        <path d="M45 17l5 4l3-4" class="bubble-tail"/>
        <text x="24" y="13">ow...</text>
      </g>
    </g>
  </g>
  <g data-transition="neutral->hurt" data-frame-index="3" transform="translate(144 264)">
    <rect x="1" y="1" width="70" height="86" class="frame"/>
    <text x="4" y="8">neutral->hurt</text>
    <text x="4" y="14" class="label">f3 60%</text>
    <g transform="translate(4.64 18.84) rotate(2.52 50 40) scale(0.6)">
      <image href="/assets/1.png" x="0" y="0" width="100" height="80" preserveAspectRatio="xMidYMid meet" class="character-image"/>
      <g class="anime-face" data-face-overlay="active">
        <g class="face-cover">
          <ellipse cx="41.8" cy="31.6" rx="7.3" ry="4.9" class="face-patch"/>
          <ellipse cx="58.2" cy="31.6" rx="7.3" ry="4.9" class="face-patch"/>
          <ellipse cx="50" cy="39.9" rx="6" ry="3.3" class="face-patch"/>
        </g>
        <path d="M36.8 28.4l9.4-3M53.8 25.4l9.4 3" class="brow-line"/>
        <ellipse cx="41.8" cy="32.2" rx="4.8" ry="3" class="eye-fill" transform="rotate(-12 41.8 32.2)"/><ellipse cx="58.2" cy="32.2" rx="4.8" ry="3" class="eye-fill" transform="rotate(12 58.2 32.2)"/>
        <path d="M44 40.7l3-2l3 2l3-2l3 2" class="mouth-line"/>
        <ellipse cx="36.8" cy="38" rx="5.4" ry="2.1" class="blush-fill" opacity="0"/>
        <ellipse cx="63.2" cy="38" rx="5.4" ry="2.1" class="blush-fill" opacity="0"/>
      </g>
      <g opacity="0.63"><path d="M39 35c-2.8 4.8-1.8 7.5 1 7.5s3.6-2.7-1-7.5z" class="effect-tear"/><path d="M60 35c-2.8 4.8-1.8 7.5 1 7.5s3.6-2.7-1-7.5z" class="effect-tear"/></g>
      <g class="bubble-group">
        <rect x="20" y="4" width="60" height="13" rx="4" class="bubble"/>
        <path d="M45 17l5 4l3-4" class="bubble-tail"/>
        <text x="24" y="13">ow...</text>
      </g>
    </g>
  </g>
  <g data-transition="neutral->hurt" data-frame-index="4" transform="translate(216 264)">
    <rect x="1" y="1" width="70" height="86" class="frame"/>
    <text x="4" y="8">neutral->hurt</text>
    <text x="4" y="14" class="label">f4 80%</text>
    <g transform="translate(4.76 18.96) rotate(2.88 50 40) scale(0.6)">
      <image href="/assets/1.png" x="0" y="0" width="100" height="80" preserveAspectRatio="xMidYMid meet" class="character-image"/>
      <g class="anime-face" data-face-overlay="active">
        <g class="face-cover">
          <ellipse cx="41.8" cy="31.6" rx="7.3" ry="4.9" class="face-patch"/>
          <ellipse cx="58.2" cy="31.6" rx="7.3" ry="4.9" class="face-patch"/>
          <ellipse cx="50" cy="39.9" rx="6" ry="3.3" class="face-patch"/>
        </g>
        <path d="M36.8 28.4l9.4-3M53.8 25.4l9.4 3" class="brow-line"/>
        <ellipse cx="41.8" cy="32.2" rx="4.8" ry="3" class="eye-fill" transform="rotate(-12 41.8 32.2)"/><ellipse cx="58.2" cy="32.2" rx="4.8" ry="3" class="eye-fill" transform="rotate(12 58.2 32.2)"/>
        <path d="M44 40.7l3-2l3 2l3-2l3 2" class="mouth-line"/>
        <ellipse cx="36.8" cy="38" rx="5.4" ry="2.1" class="blush-fill" opacity="0"/>
        <ellipse cx="63.2" cy="38" rx="5.4" ry="2.1" class="blush-fill" opacity="0"/>
      </g>
      <g opacity="0.72"><path d="M39 35c-2.8 4.8-1.8 7.5 1 7.5s3.6-2.7-1-7.5z" class="effect-tear"/><path d="M60 35c-2.8 4.8-1.8 7.5 1 7.5s3.6-2.7-1-7.5z" class="effect-tear"/></g>
      <g class="bubble-group">
        <rect x="20" y="4" width="60" height="13" rx="4" class="bubble"/>
        <path d="M45 17l5 4l3-4" class="bubble-tail"/>
        <text x="24" y="13">ow...</text>
      </g>
    </g>
  </g>
  <g data-transition="neutral->hurt" data-frame-index="5" transform="translate(288 264)">
    <rect x="1" y="1" width="70" height="86" class="frame"/>
    <text x="4" y="8">neutral->hurt</text>
    <text x="4" y="14" class="label">f5 100%</text>
    <g transform="translate(4.8 19) rotate(3 50 40) scale(0.6)">
      <image href="/assets/1.png" x="0" y="0" width="100" height="80" preserveAspectRatio="xMidYMid meet" class="character-image"/>
      <g class="anime-face" data-face-overlay="active">
        <g class="face-cover">
          <ellipse cx="41.8" cy="31.6" rx="7.3" ry="4.9" class="face-patch"/>
          <ellipse cx="58.2" cy="31.6" rx="7.3" ry="4.9" class="face-patch"/>
          <ellipse cx="50" cy="39.9" rx="6" ry="3.3" class="face-patch"/>
        </g>
        <path d="M36.8 28.4l9.4-3M53.8 25.4l9.4 3" class="brow-line"/>
        <ellipse cx="41.8" cy="32.2" rx="4.8" ry="3" class="eye-fill" transform="rotate(-12 41.8 32.2)"/><ellipse cx="58.2" cy="32.2" rx="4.8" ry="3" class="eye-fill" transform="rotate(12 58.2 32.2)"/>
        <path d="M44 40.7l3-2l3 2l3-2l3 2" class="mouth-line"/>
        <ellipse cx="36.8" cy="38" rx="5.4" ry="2.1" class="blush-fill" opacity="0"/>
        <ellipse cx="63.2" cy="38" rx="5.4" ry="2.1" class="blush-fill" opacity="0"/>
      </g>
      <g opacity="0.75"><path d="M39 35c-2.8 4.8-1.8 7.5 1 7.5s3.6-2.7-1-7.5z" class="effect-tear"/><path d="M60 35c-2.8 4.8-1.8 7.5 1 7.5s3.6-2.7-1-7.5z" class="effect-tear"/></g>
      <g class="bubble-group">
        <rect x="20" y="4" width="60" height="13" rx="4" class="bubble"/>
        <path d="M45 17l5 4l3-4" class="bubble-tail"/>
        <text x="24" y="13">ow...</text>
      </g>
    </g>
  </g>
  <g data-transition="neutral->curious" data-frame-index="0" transform="translate(0 352)">
    <rect x="1" y="1" width="70" height="86" class="frame"/>
    <text x="4" y="8">neutral->curious</text>
    <text x="4" y="14" class="label">f0 0%</text>
    <g transform="translate(5 18) rotate(0 50 40) scale(0.62)">
      <image href="/assets/1.png" x="0" y="0" width="100" height="80" preserveAspectRatio="xMidYMid meet" class="character-image"/>
      <g class="bubble-group">
        <rect x="20" y="4" width="60" height="13" rx="4" class="bubble"/>
        <path d="M45 17l5 4l3-4" class="bubble-tail"/>
        <text x="24" y="13">hmm?</text>
      </g>
    </g>
  </g>
  <g data-transition="neutral->curious" data-frame-index="1" transform="translate(72 352)">
    <rect x="1" y="1" width="70" height="86" class="frame"/>
    <text x="4" y="8">neutral->curious</text>
    <text x="4" y="14" class="label">f1 20%</text>
    <g transform="translate(5 17.72) rotate(0.62 50 40) scale(0.62)">
      <image href="/assets/1.png" x="0" y="0" width="100" height="80" preserveAspectRatio="xMidYMid meet" class="character-image"/>
      <g class="anime-face" data-face-overlay="active">
        <g class="face-cover">
          <ellipse cx="41.8" cy="31.6" rx="7.3" ry="4.9" class="face-patch"/>
          <ellipse cx="58.2" cy="31.6" rx="7.3" ry="4.9" class="face-patch"/>
          <ellipse cx="50" cy="39.9" rx="6" ry="3.3" class="face-patch"/>
        </g>
        <path d="M37.2 23.5q4.6-2 9.2 0M53.6 23.5q4.6-2 9.2 0" class="brow-line"/>
        <ellipse cx="41.8" cy="31.4" rx="5.3" ry="6.5" class="eye-fill"/><ellipse cx="58.2" cy="31.4" rx="5.3" ry="6.5" class="eye-fill"/><circle cx="40.1" cy="28.7" r="1.25" class="eye-shine"/><circle cx="56.5" cy="28.7" r="1.25" class="eye-shine"/>
        <path d="M45 39.8q5 4 10 0" class="mouth-line"/>
        <ellipse cx="36.8" cy="38" rx="5.4" ry="2.1" class="blush-fill" opacity="0"/>
        <ellipse cx="63.2" cy="38" rx="5.4" ry="2.1" class="blush-fill" opacity="0"/>
      </g>
      <g class="bubble-group">
        <rect x="20" y="4" width="60" height="13" rx="4" class="bubble"/>
        <path d="M45 17l5 4l3-4" class="bubble-tail"/>
        <text x="24" y="13">hmm?</text>
      </g>
    </g>
  </g>
  <g data-transition="neutral->curious" data-frame-index="3" transform="translate(144 352)">
    <rect x="1" y="1" width="70" height="86" class="frame"/>
    <text x="4" y="8">neutral->curious</text>
    <text x="4" y="14" class="label">f3 60%</text>
    <g transform="translate(5 17.5) rotate(-5.76 50 40) scale(0.63)">
      <image href="/assets/1.png" x="0" y="0" width="100" height="80" preserveAspectRatio="xMidYMid meet" class="character-image"/>
      <g class="anime-face" data-face-overlay="active">
        <g class="face-cover">
          <ellipse cx="41.8" cy="31.6" rx="7.3" ry="4.9" class="face-patch"/>
          <ellipse cx="58.2" cy="31.6" rx="7.3" ry="4.9" class="face-patch"/>
          <ellipse cx="50" cy="39.9" rx="6" ry="3.3" class="face-patch"/>
        </g>
        <path d="M37.2 23.5q4.6-2 9.2 0M53.6 23.5q4.6-2 9.2 0" class="brow-line"/>
        <ellipse cx="41.8" cy="31.4" rx="5.3" ry="6.5" class="eye-fill"/><ellipse cx="58.2" cy="31.4" rx="5.3" ry="6.5" class="eye-fill"/><circle cx="40.1" cy="28.7" r="1.25" class="eye-shine"/><circle cx="56.5" cy="28.7" r="1.25" class="eye-shine"/>
        <path d="M45 39.8q5 4 10 0" class="mouth-line"/>
        <ellipse cx="36.8" cy="38" rx="5.4" ry="2.1" class="blush-fill" opacity="0"/>
        <ellipse cx="63.2" cy="38" rx="5.4" ry="2.1" class="blush-fill" opacity="0"/>
      </g>
      <g opacity="0.75"><text x="67" y="26" class="effect-symbol">?</text></g>
      <g class="bubble-group">
        <rect x="20" y="4" width="60" height="13" rx="4" class="bubble"/>
        <path d="M45 17l5 4l3-4" class="bubble-tail"/>
        <text x="24" y="13">hmm?</text>
      </g>
    </g>
  </g>
  <g data-transition="neutral->curious" data-frame-index="4" transform="translate(216 352)">
    <rect x="1" y="1" width="70" height="86" class="frame"/>
    <text x="4" y="8">neutral->curious</text>
    <text x="4" y="14" class="label">f4 80%</text>
    <g transform="translate(5 17.5) rotate(-6.85 50 40) scale(0.63)">
      <image href="/assets/1.png" x="0" y="0" width="100" height="80" preserveAspectRatio="xMidYMid meet" class="character-image"/>
      <g class="anime-face" data-face-overlay="active">
        <g class="face-cover">
          <ellipse cx="41.8" cy="31.6" rx="7.3" ry="4.9" class="face-patch"/>
          <ellipse cx="58.2" cy="31.6" rx="7.3" ry="4.9" class="face-patch"/>
          <ellipse cx="50" cy="39.9" rx="6" ry="3.3" class="face-patch"/>
        </g>
        <path d="M37.2 23.5q4.6-2 9.2 0M53.6 23.5q4.6-2 9.2 0" class="brow-line"/>
        <ellipse cx="41.8" cy="31.4" rx="5.3" ry="6.5" class="eye-fill"/><ellipse cx="58.2" cy="31.4" rx="5.3" ry="6.5" class="eye-fill"/><circle cx="40.1" cy="28.7" r="1.25" class="eye-shine"/><circle cx="56.5" cy="28.7" r="1.25" class="eye-shine"/>
        <path d="M45 39.8q5 4 10 0" class="mouth-line"/>
        <ellipse cx="36.8" cy="38" rx="5.4" ry="2.1" class="blush-fill" opacity="0"/>
        <ellipse cx="63.2" cy="38" rx="5.4" ry="2.1" class="blush-fill" opacity="0"/>
      </g>
      <g opacity="0.75"><text x="67" y="26" class="effect-symbol">?</text></g>
      <g class="bubble-group">
        <rect x="20" y="4" width="60" height="13" rx="4" class="bubble"/>
        <path d="M45 17l5 4l3-4" class="bubble-tail"/>
        <text x="24" y="13">hmm?</text>
      </g>
    </g>
  </g>
  <g data-transition="neutral->curious" data-frame-index="5" transform="translate(288 352)">
    <rect x="1" y="1" width="70" height="86" class="frame"/>
    <text x="4" y="8">neutral->curious</text>
    <text x="4" y="14" class="label">f5 100%</text>
    <g transform="translate(5 17.5) rotate(-4 50 40) scale(0.63)">
      <image href="/assets/1.png" x="0" y="0" width="100" height="80" preserveAspectRatio="xMidYMid meet" class="character-image"/>
      <g class="anime-face" data-face-overlay="active">
        <g class="face-cover">
          <ellipse cx="41.8" cy="31.6" rx="7.3" ry="4.9" class="face-patch"/>
          <ellipse cx="58.2" cy="31.6" rx="7.3" ry="4.9" class="face-patch"/>
          <ellipse cx="50" cy="39.9" rx="6" ry="3.3" class="face-patch"/>
        </g>
        <path d="M37.2 23.5q4.6-2 9.2 0M53.6 23.5q4.6-2 9.2 0" class="brow-line"/>
        <ellipse cx="41.8" cy="31.4" rx="5.3" ry="6.5" class="eye-fill"/><ellipse cx="58.2" cy="31.4" rx="5.3" ry="6.5" class="eye-fill"/><circle cx="40.1" cy="28.7" r="1.25" class="eye-shine"/><circle cx="56.5" cy="28.7" r="1.25" class="eye-shine"/>
        <path d="M45 39.8q5 4 10 0" class="mouth-line"/>
        <ellipse cx="36.8" cy="38" rx="5.4" ry="2.1" class="blush-fill" opacity="0"/>
        <ellipse cx="63.2" cy="38" rx="5.4" ry="2.1" class="blush-fill" opacity="0"/>
      </g>
      <g opacity="0.75"><text x="67" y="26" class="effect-symbol">?</text></g>
      <g class="bubble-group">
        <rect x="20" y="4" width="60" height="13" rx="4" class="bubble"/>
        <path d="M45 17l5 4l3-4" class="bubble-tail"/>
        <text x="24" y="13">hmm?</text>
      </g>
    </g>
  </g>
</svg>
