<svg xmlns="http://www.w3.org/2000/svg" id="svgotchi-root" viewBox="0 0 100 100" tabindex="0" role="img" aria-labelledby="svgotchi-title svgotchi-desc">
  <title id="svgotchi-title">SVGotchi uploaded anime companion</title>
  <desc id="svgotchi-desc">An SVG app shell that renders the uploaded character asset exactly from assets/1.png with a pure SVG prompt placeholder.</desc>
  <style>
    #svgotchi-root { background: #140f1f; }
    .rig-slot { fill: none; opacity: 0; pointer-events: none; }
    .face-slot { opacity: 0; pointer-events: none; }
    .character-image { image-rendering: auto; }
    .effect-fill { fill: #ff7dac; }
    .effect-tear { fill: #7ed8ff; }
    .effect-line { stroke: #ffe889; stroke-width: 1.2; stroke-linecap: round; fill: none; }
    .hidden-layer { opacity: 0; }
    .prompt-panel { fill: #211832; stroke: #cbb5ea; stroke-width: 1; }
    .prompt-fill { fill: #140f1f; }
    .prompt-accent { fill: #cdb9ff; }
    text { fill: #f7eaff; font-family: monospace; font-size: 5px; }
  </style>
  <rect id="pet-area" x="0" y="0" width="100" height="80" fill="#140f1f"/>
  <g id="pet">
    <rect id="body" x="10" y="0" width="80" height="80" rx="0" class="rig-slot"/>
    <image id="character-image" href="/assets/1.png" x="0" y="0" width="100" height="80" preserveAspectRatio="xMidYMid meet" class="character-image"/>
    <g id="face" class="face-slot">
      <path id="brow-left" d="M38 33q4-2 8 0"/>
      <path id="brow-right" d="M54 33q4-2 8 0"/>
      <ellipse id="eye-left" cx="42" cy="39" rx="4.6" ry="6"/>
      <ellipse id="eye-right" cx="58" cy="39" rx="4.6" ry="6"/>
      <path id="mouth" d="M46 52q4 2 8 0"/>
      <ellipse id="blush-left" cx="37.5" cy="49" rx="5.3" ry="2.5"/>
      <ellipse id="blush-right" cx="62.5" cy="49" rx="5.3" ry="2.5"/>
    </g>
    <g id="effect-hearts" class="hidden-layer">
      <path d="M67 22c-2-4-8-2-6 3c1 3 6 6 6 6s5-3 6-6c2-5-4-7-6-3z" class="effect-fill"/>
    </g>
    <g id="effect-tears" class="hidden-layer">
      <path d="M38 44c-3 5-2 8 1 8s4-3-1-8z" class="effect-tear"/>
      <path d="M61 44c-3 5-2 8 1 8s4-3-1-8z" class="effect-tear"/>
    </g>
    <g id="effect-zzz" class="hidden-layer">
      <text x="66" y="20">Z</text>
    </g>
    <g id="effect-sparkles" class="hidden-layer">
      <path d="M64 19v10M59 24h10M69 16v6M66 19h6" class="effect-line"/>
    </g>
    <g id="effect-question" class="hidden-layer">
      <text x="66" y="26">?</text>
    </g>
    <g id="effect-anger" class="hidden-layer">
      <path d="M65 20l4 5M70 20l-4 5" class="effect-line"/>
    </g>
    <g id="speech-bubble" class="hidden-layer">
      <rect x="20" y="4" width="60" height="13" rx="4" class="prompt-panel"/>
      <path d="M45 17l5 4l3-4" class="prompt-accent"/>
    </g>
  </g>
  <rect id="prompt-area" x="0" y="81" width="100" height="19" fill="#140f1f"/>
  <rect id="prompt-bg" x="2" y="82" width="96" height="16" rx="3" class="prompt-panel"/>
  <text id="prompt-placeholder" x="7" y="92">say hi...</text>
  <text id="prompt-text" x="7" y="92"></text>
  <rect id="prompt-caret" x="7" y="86" width="1" height="8" class="prompt-accent" opacity="0"/>
  <rect id="send-zone" x="84" y="84" width="12" height="12" rx="3" class="prompt-panel"/>
  <text id="send-label" x="87" y="92">&gt;</text>
</svg>
